<?xml version="1.0" encoding="UTF-8"?>
<svg version="1.1" xmlns="http://www.w3.org/2000/svg" width="499" height="499" viewBox="0 0 499 499">
<path d="M0 0 C1.16015625 -0.02791626 1.16015625 -0.02791626 2.34375 -0.05639648 C6.28104171 -0.01223914 8.20394467 0.23034777 11.6015625 2.40625 C14.63949542 5.54974816 15.02042096 7.82436257 14.98046875 12.203125 C14.14354185 17.61096036 10.78017706 22.96865649 6.625 26.5 C5.965 26.5 5.305 26.5 4.625 26.5 C4.625 27.16 4.625 27.82 4.625 28.5 C3.965 28.5 3.305 28.5 2.625 28.5 C2.625 29.16 2.625 29.82 2.625 30.5 C1.965 30.5 1.305 30.5 0.625 30.5 C0.13 31.985 0.13 31.985 -0.375 33.5 C-1.035 33.5 -1.695 33.5 -2.375 33.5 C-2.375 34.16 -2.375 34.82 -2.375 35.5 C-3.035 35.5 -3.695 35.5 -4.375 35.5 C-4.375 36.16 -4.375 36.82 -4.375 37.5 C-5.75 39.125 -5.75 39.125 -7.375 40.5 C-8.035 40.5 -8.695 40.5 -9.375 40.5 C-9.375 41.16 -9.375 41.82 -9.375 42.5 C-10.035 42.5 -10.695 42.5 -11.375 42.5 C-11.375 43.16 -11.375 43.82 -11.375 44.5 C-12.035 44.5 -12.695 44.5 -13.375 44.5 C-13.375 45.16 -13.375 45.82 -13.375 46.5 C-12.715 46.5 -12.055 46.5 -11.375 46.5 C-11.34813447 48.47909398 -11.32866625 50.45828971 -11.3125 52.4375 C-11.30089844 53.53964844 -11.28929687 54.64179688 -11.27734375 55.77734375 C-11.375 58.5 -11.375 58.5 -12.375 59.5 C-17.80064212 59.91661181 -22.93432093 59.76227003 -28.1875 58.3125 C-32.56324547 57.19726576 -34.42268833 58.27682468 -38.375 60.5 C-44.83339544 62.18533367 -50.42913235 61.52050076 -56.375 58.5 C-59.29529938 56.22074194 -60.16396155 54.67285083 -60.81640625 51.046875 C-61.22563843 44.8126146 -60.12006875 40.50416277 -56.359375 35.5078125 C-52.86996133 31.97718529 -48.77924009 29.71665549 -44.375 27.5 C-43.69824219 27.1390625 -43.02148438 26.778125 -42.32421875 26.40625 C-37.11857437 23.98599049 -31.42264769 23.47881216 -25.7421875 23.36328125 C-24.91211182 23.34209229 -24.08203613 23.32090332 -23.22680664 23.29907227 C-21.56483391 23.26695453 -19.90213991 23.2599492 -18.23999023 23.28100586 C-12.60440041 23.17043599 -9.7052409 21.82513538 -5.57885742 17.98144531 C-4.1647832 16.55946333 -4.1647832 16.55946333 -4.375 14.5 C-9.25919897 14.90723988 -9.25919897 14.90723988 -13.5625 17.03125 C-17.48707228 19.08074886 -20.83625495 18.82974523 -25.1875 18.6875 C-25.97576172 18.67396484 -26.76402344 18.66042969 -27.57617188 18.64648438 C-29.50941169 18.61133456 -31.44229682 18.55753361 -33.375 18.5 C-33.87 17.015 -33.87 17.015 -34.375 15.5 C-52.04453468 16.1594807 -59.72947091 21.50893064 -71.91015625 34.1484375 C-73.30979264 35.5801648 -74.71020609 37.0111328 -76.11132812 38.44140625 C-78.28663107 40.66625434 -80.45690983 42.89516951 -82.61450195 45.13720703 C-84.72010623 47.32155439 -86.84436375 49.48622029 -88.97265625 51.6484375 C-89.61139175 52.32127777 -90.25012726 52.99411804 -90.90821838 53.68734741 C-94.89791076 57.70094543 -97.47552685 59.38372591 -103.375 59.5 C-105.69072959 59.42050098 -108.00531595 59.27656862 -110.3125 59.0625 C-111.45589844 58.96066406 -112.59929687 58.85882813 -113.77734375 58.75390625 C-114.63457031 58.67011719 -115.49179687 58.58632812 -116.375 58.5 C-116.375 57.51 -116.375 56.52 -116.375 55.5 C-115.715 55.5 -115.055 55.5 -114.375 55.5 C-114.375 54.84 -114.375 54.18 -114.375 53.5 C-112.9956529 52.31311994 -111.61215997 51.1289022 -110.17578125 50.01171875 C-108.30282982 48.43941462 -106.60826294 46.73605716 -104.88554382 45.00288391 C-102.60452259 42.73342966 -100.27701619 40.51311003 -97.95526123 38.28546143 C-95.08260101 35.52024033 -92.23135655 32.73335356 -89.38085938 29.9453125 C-87.87683689 28.48165772 -86.36573276 27.02524491 -84.84765625 25.57617188 C-82.64481333 23.47068164 -80.46913122 21.34010285 -78.296875 19.203125 C-77.61776062 18.5653009 -76.93864624 17.92747681 -76.23895264 17.27032471 C-72.0818251 13.11721981 -70.59532601 10.2186974 -70.44805908 4.29559326 C-70.375 2.5 -70.375 2.5 -69.375 1.5 C-67.06598304 1.34820622 -64.75132931 1.27818878 -62.4375 1.25 C-61.17035156 1.22421875 -59.90320313 1.1984375 -58.59765625 1.171875 C-57.00244141 1.33429688 -57.00244141 1.33429688 -55.375 1.5 C-54.715 2.49 -54.055 3.48 -53.375 4.5 C-52.323125 4.005 -51.27125 3.51 -50.1875 3 C-44.3978475 0.77802526 -38.47969648 1.24873963 -32.375 1.5 C-31.385 6.45 -31.385 6.45 -30.375 11.5 C-29.78074219 11.04109375 -29.18648438 10.5821875 -28.57421875 10.109375 C-19.33181172 3.2674065 -11.47330463 0.18330541 0 0 Z M-41.625 40.9375 C-43.63486944 43.30383895 -43.63486944 43.30383895 -43.1875 45.8125 C-42.919375 46.369375 -42.65125 46.92625 -42.375 47.5 C-36.88044744 47.0604358 -33.74080903 45.84402394 -29.375 42.5 C-28.81167969 42.06945312 -28.24835938 41.63890625 -27.66796875 41.1953125 C-26.18752721 40.02344074 -24.77510725 38.7667637 -23.375 37.5 C-23.375 36.84 -23.375 36.18 -23.375 35.5 C-29.61926545 35.5 -36.84615604 36.57596354 -41.625 40.9375 Z " fill="#FBF7F5" transform="translate(399.375,194.5)"/>
<path d="M0 0 C2.68353791 1.74151075 3.46836463 3.10120429 4.69140625 6.09765625 C6.42042387 19.20069339 -0.16109324 28.14157448 -7.62109375 38.22265625 C-11.14186299 41.98906056 -15.00965583 45.24295877 -19.30859375 48.09765625 C-19.96859375 48.09765625 -20.62859375 48.09765625 -21.30859375 48.09765625 C-21.30859375 48.75765625 -21.30859375 49.41765625 -21.30859375 50.09765625 C-23.51443615 51.22777277 -25.72304402 52.35181413 -27.93359375 53.47265625 C-28.55105469 53.78976563 -29.16851562 54.106875 -29.8046875 54.43359375 C-38.52615266 58.84022878 -46.46129133 60.9327825 -56.1328125 59.05859375 C-59.18112802 57.7123 -61.00946018 55.47063372 -63.30859375 53.09765625 C-63.96641846 53.85498047 -64.62424316 54.61230469 -65.30200195 55.39257812 C-85.42662914 78.28817764 -85.42662914 78.28817764 -94.19921875 79.7578125 C-98.74943963 79.92468592 -102.9217547 79.27410296 -107.30859375 78.09765625 C-107.05426758 73.7226466 -105.34267525 71.78392871 -102.15068054 68.91546631 C-101.53892471 68.38262024 -100.92716888 67.84977417 -100.296875 67.30078125 C-98.91858718 66.05582675 -97.54332388 64.80751909 -96.17041016 63.55664062 C-95.40069885 62.85659912 -94.63098755 62.15655762 -93.83795166 61.43530273 C-86.19149464 54.36840512 -78.80933158 47.01238498 -71.40644646 39.69208527 C-68.66332771 36.97984024 -65.91264816 34.27631181 -63.14331055 31.59082031 C-60.41730039 28.94698974 -57.71165629 26.28381117 -55.01900673 23.6060257 C-54.00326454 22.6024332 -52.98071087 21.60568091 -51.95097923 20.61644745 C-45.49719636 14.40483165 -42.14836397 10.07241648 -41.30859375 1.09765625 C-40.30859375 0.09765625 -40.30859375 0.09765625 -37.4375 -0.03515625 C-36.26058594 -0.03257812 -35.08367187 -0.03 -33.87109375 -0.02734375 C-32.10958984 -0.03121094 -32.10958984 -0.03121094 -30.3125 -0.03515625 C-27.30859375 0.09765625 -27.30859375 0.09765625 -25.30859375 1.09765625 C-25.30859375 1.75765625 -25.30859375 2.41765625 -25.30859375 3.09765625 C-24.82132812 2.80890625 -24.3340625 2.52015625 -23.83203125 2.22265625 C-16.75878209 -1.48115422 -7.63621471 -2.98471336 0 0 Z M-28.30859375 18.09765625 C-31.87321668 20.88268593 -35.11152401 23.90058651 -38.30859375 27.09765625 C-39.07945312 27.86851562 -39.8503125 28.639375 -40.64453125 29.43359375 C-44.78133128 33.80934252 -47.29069818 37.11751978 -48.30859375 43.09765625 C-47.10197798 44.53199106 -47.10197798 44.53199106 -43.55859375 44.22265625 C-33.23939993 42.9245411 -24.60857051 33.95725206 -18.11328125 26.45703125 C-14.93051453 22.29601155 -12.84932252 19.45582062 -13.30859375 14.09765625 C-19.46393195 12.37634044 -23.12792567 14.79469756 -28.30859375 18.09765625 Z " fill="#FCFAF9" transform="translate(244.30859375,195.90234375)"/>
<path d="M0 0 C-0.5844528 3.35700108 -1.62247924 4.99748656 -4.01928711 7.39160156 C-4.65342026 8.0319635 -5.28755341 8.67232544 -5.94090271 9.33209229 C-6.62942825 10.01140808 -7.3179538 10.69072388 -8.02734375 11.390625 C-8.73145889 12.09523865 -9.43557404 12.79985229 -10.161026 13.52581787 C-11.64957611 15.01202884 -13.14181716 16.49455089 -14.63745117 17.97363281 C-16.93390865 20.24644562 -19.21670722 22.53233604 -21.49804688 24.8203125 C-22.94452096 26.26121171 -24.3917607 27.70134279 -25.83984375 29.140625 C-26.52634506 29.82803772 -27.21284637 30.51545044 -27.92015076 31.22369385 C-28.55743607 31.85144714 -29.19472137 32.47920044 -29.85131836 33.12597656 C-30.41233749 33.68238831 -30.97335663 34.23880005 -31.55137634 34.81207275 C-33 36 -33 36 -35 36 C-36.52299523 38.93720508 -37.80100302 41.9168649 -39 45 C-23.90448978 41.49959183 -13.4399844 27.65724288 -3 17.0625 C-0.73584872 14.77070193 1.52978408 12.48041644 3.79833984 10.19297791 C5.20118634 8.77789333 6.6013509 7.36014386 7.99853516 5.93946838 C8.62679199 5.30468063 9.25504883 4.66989288 9.90234375 4.01586914 C10.72980103 3.17603233 10.72980103 3.17603233 11.57397461 2.31922913 C14.07186324 0.00840952 15.83865702 -0.12085453 19.1328125 -0.09765625 C19.93847656 -0.09443359 20.74414062 -0.09121094 21.57421875 -0.08789062 C22.83685547 -0.07532227 22.83685547 -0.07532227 24.125 -0.0625 C24.97449219 -0.05798828 25.82398438 -0.05347656 26.69921875 -0.04882812 C28.79950909 -0.03702874 30.8997633 -0.01909306 33 0 C32.19928098 3.86326289 30.6814791 6.07475007 28 9 C27.34 9 26.68 9 26 9 C25.60035034 9.88860718 25.60035034 9.88860718 25.19262695 10.79516602 C23.97554782 13.04520525 22.73700372 14.49331612 20.91796875 16.27734375 C20.31533203 16.87353516 19.71269531 17.46972656 19.09179688 18.08398438 C18.46337891 18.69564453 17.83496094 19.30730469 17.1875 19.9375 C16.57068359 20.54529297 15.95386719 21.15308594 15.31835938 21.77929688 C14.11045218 22.96923308 12.89943585 24.15602294 11.68505859 25.33935547 C10.15362022 26.84860551 8.6645405 28.39036496 7.17578125 29.94140625 C5 32 5 32 3 32 C2.773125 32.56589844 2.54625 33.13179687 2.3125 33.71484375 C0.6380221 36.63022939 -1.45391139 38.37538027 -4 40.5625 C-8.89701106 44.4444297 -8.89701106 44.4444297 -11.30859375 49.97265625 C-11.35113281 50.66230469 -11.39367187 51.35195312 -11.4375 52.0625 C-11.623125 53.361875 -11.80875 54.66125 -12 56 C-15.09924806 58.06616537 -15.74608019 58.25488307 -19.25 58.1875 C-20.0440625 58.17332031 -20.838125 58.15914062 -21.65625 58.14453125 C-24 58 -24 58 -27.75 57.375 C-31.391055 56.95487827 -32.67969123 57.64326165 -36 59 C-42.78518386 60.34892295 -48.93239392 60.66911709 -55 57 C-58.28391288 54.12657623 -58.91300915 52.57993902 -59.5625 48.25 C-58.99391815 38.6110237 -51.30300491 31.80865786 -44.75 25.5625 C-43.11785253 23.98246939 -41.48754481 22.4005354 -39.859375 20.81640625 C-39.14233398 20.13006104 -38.42529297 19.44371582 -37.68652344 18.73657227 C-35.92078983 17.09351702 -35.92078983 17.09351702 -35 15 C-34.34 15 -33.68 15 -33 15 C-33 14.34 -33 13.68 -33 13 C-31.16597708 11.151686 -29.18522184 9.54216462 -27.17578125 7.88671875 C-25.01178847 6.12022985 -25.01178847 6.12022985 -23.54296875 4.20703125 C-17.75410422 -2.50677582 -8.05414371 -0.46023678 0 0 Z " fill="#FCF9F8" transform="translate(165,196)"/>
<path d="M0 0 C2.37959316 1.8788594 3.86041088 3.54074052 4.50390625 6.56640625 C4.86825749 14.93130341 0.55882807 20.2379558 -4.15234375 26.78125 C-4.72984375 27.4 -5.30734375 28.01875 -5.90234375 28.65625 C-6.56234375 28.65625 -7.22234375 28.65625 -7.90234375 28.65625 C-8.17046875 29.275 -8.43859375 29.89375 -8.71484375 30.53125 C-9.90234375 32.65625 -9.90234375 32.65625 -12.90234375 34.65625 C-15.8711884 34.89769163 -18.75421175 35.02932097 -21.7265625 35.0703125 C-22.58796341 35.08967865 -23.44936432 35.1090448 -24.33686829 35.1289978 C-27.08775943 35.1887703 -29.83869248 35.23516948 -32.58984375 35.28125 C-34.45509636 35.31943194 -36.32033138 35.3584838 -38.18554688 35.3984375 C-42.75766961 35.4944699 -47.32987489 35.5785095 -51.90234375 35.65625 C-52.23234375 38.29625 -52.56234375 40.93625 -52.90234375 43.65625 C-48.99458676 44.03749458 -47.30883692 43.93902786 -44.02734375 41.65625 C-40.13230821 39.17437928 -36.07467926 39.23858124 -31.58984375 39.21875 C-30.87135254 39.20908203 -30.15286133 39.19941406 -29.41259766 39.18945312 C-27.3515625 39.22265625 -27.3515625 39.22265625 -23.90234375 39.65625 C-23.24234375 40.64625 -22.58234375 41.63625 -21.90234375 42.65625 C-28.1510849 51.32484679 -38.6727711 57.305281 -49.08203125 59.359375 C-55.90586949 60.07767376 -62.06022078 59.50350171 -67.90234375 55.65625 C-71.64711578 51.62410938 -71.47251342 48.10376134 -71.29296875 42.80078125 C-69.94128879 31.91975754 -61.5473927 23.89117941 -53.90234375 16.65625 C-51.53125 15.28125 -51.53125 15.28125 -49.90234375 14.65625 C-49.90234375 13.99625 -49.90234375 13.33625 -49.90234375 12.65625 C-36.67816443 3.22892889 -16.36740213 -7.57790893 0 0 Z M-35.90234375 21.65625 C-33.15069943 21.79142903 -30.40569854 21.89040251 -27.65234375 21.96875 C-26.87503906 22.01064453 -26.09773438 22.05253906 -25.296875 22.09570312 C-20.33097476 22.22391246 -20.33097476 22.22391246 -16.40234375 19.28125 C-15.09172289 16.9876635 -14.28681426 15.25142592 -13.90234375 12.65625 C-22.85414629 11.82737939 -29.79274353 15.09823876 -35.90234375 21.65625 Z " fill="#FCFBFA" transform="translate(309.90234375,196.34375)"/>
<path d="M0 0 C2.0671244 3.14445308 2.29715556 5.77641576 2.3125 9.5 C2.32925781 10.4384375 2.34601563 11.376875 2.36328125 12.34375 C1.92626875 15.53911019 1.42866274 16.86117767 -1 19 C-4.13671875 19.390625 -4.13671875 19.390625 -7.6875 19.25 C-8.86699219 19.21390625 -10.04648438 19.1778125 -11.26171875 19.140625 C-12.16535156 19.09421875 -13.06898437 19.0478125 -14 19 C-15.231394 15.30581799 -14.64432764 12.7943739 -14 9 C-18.08150178 8.62076859 -18.08150178 8.62076859 -21.71484375 10.16796875 C-23.53405274 12.76130923 -23.13347346 14.39886682 -22.75 17.5 C-22.64171875 18.4590625 -22.5334375 19.418125 -22.421875 20.40625 C-22.05388659 23.10471284 -22.05388659 23.10471284 -21 26 C-20.35782053 33.69562606 -20.12518285 40.68292926 -25 47 C-30.32517566 53.04255684 -36.59387472 55.52791515 -44.5 56.375 C-51.95692762 55.57604347 -57.73093805 53.39757565 -63 48 C-65.28833963 44.04741337 -65.39569707 40.51094661 -65 36 C-62.77419355 30.77419355 -62.77419355 30.77419355 -61 29 C-58.81360547 28.92741054 -56.62499611 28.91626217 -54.4375 28.9375 C-52.64119141 28.95103516 -52.64119141 28.95103516 -50.80859375 28.96484375 C-49.88175781 28.97644531 -48.95492187 28.98804688 -48 29 C-48.01160156 29.71027344 -48.02320312 30.42054688 -48.03515625 31.15234375 C-48.04417969 32.07144531 -48.05320312 32.99054688 -48.0625 33.9375 C-48.07410156 34.85402344 -48.08570312 35.77054688 -48.09765625 36.71484375 C-48.25949049 38.96593327 -48.25949049 38.96593327 -47 40 C-43.54187831 40.33338596 -43.54187831 40.33338596 -40 40 C-37.50270084 36.25405125 -37.7034371 34.44844343 -38 30 C-38.33 28.989375 -38.66 27.97875 -39 26.9375 C-40.99849941 20.42768206 -41.42060839 12.65075466 -38.9375 6.26953125 C-35.72811684 1.06300477 -31.65074 -2.62412068 -26 -5 C-16.84499601 -7.06725896 -7.22622933 -6.57090951 0 0 Z " fill="#FCF8F6" transform="translate(121,200)"/>
<path d="M0 0 C0.33 -0.33 0.66 -0.66 1 -1 C2.66617115 -1.04063832 4.33388095 -1.042721 6 -1 C6.66 0.65 7.32 2.3 8 4 C8.66 4 9.32 4 10 4 C10.33 2.68 10.66 1.36 11 0 C13.375 -0.625 13.375 -0.625 16 -1 C16.66 -0.34 17.32 0.32 18 1 C18.99 0.34 19.98 -0.32 21 -1 C24.59572704 -1.55820763 27.91459481 -1.77028755 30.9375 0.375 C33.58921071 4.43055755 33.58084256 8.2606614 33 13 C31.5 15.5625 31.5 15.5625 29 17 C25.51699208 17.46807221 22.21102274 17.60551137 19 16 C19 15.34 19 14.68 19 14 C18.34 14 17.68 14 17 14 C16.34 12.35 15.68 10.7 15 9 C14.608125 10.134375 14.21625 11.26875 13.8125 12.4375 C12 16 12 16 9.4375 17 C7 17 7 17 5 16 C3.95191959 14.02477154 2.9479589 12.02518491 2 10 C1.3503125 11.175625 1.3503125 11.175625 0.6875 12.375 C-1 15 -1 15 -4 17 C-6.15625 17.08203125 -6.15625 17.08203125 -8.5 16.8125 C-9.2734375 16.73644531 -10.046875 16.66039062 -10.84375 16.58203125 C-13.45771084 15.87645124 -14.43280102 15.20387357 -16 13 C-16.68016518 9.60484215 -16.58011342 6.40816631 -16 3 C-11.90949713 -2.36878502 -6.04240889 -2.0141363 0 0 Z M-9 5 C-10.01111093 8.04913228 -10.01111093 8.04913228 -9 11 C-7.68 10.67 -6.36 10.34 -5 10 C-5.33 8.35 -5.66 6.7 -6 5 C-6.99 5 -7.98 5 -9 5 Z " fill="#EEB3B0" transform="translate(213,281)"/>
<path d="M0 0 C2.125 0.375 2.125 0.375 4 1 C4 2.98 4 4.96 4 7 C4.4125 6.5875 4.825 6.175 5.25 5.75 C6.11625 4.88375 6.11625 4.88375 7 4 C7.639375 3.2575 8.27875 2.515 8.9375 1.75 C9.618125 1.1725 10.29875 0.595 11 0 C13.25 0.25 13.25 0.25 15 1 C15.33 2.65 15.66 4.3 16 6 C18.31400101 6 20.62814908 5.89662546 22.9375 5.75 C25.9678485 5.76114099 26.82397228 5.88264819 29.4375 7.625 C31.40064753 10.60898425 31.92973805 12.41664077 32 16 C31.25744993 18.58831738 30.27724529 20.58742556 29 23 C25.09635665 24.95182167 21.10893112 24.35391419 17.0625 23.0625 C14.55593899 20.55593899 14.69831597 19.75197868 14.6875 16.3125 C14.76782857 14.87347107 14.86463226 13.43489809 15 12 C14.34 12 13.68 12 13 12 C13 15.63 13 19.26 13 23 C9 24 9 24 7 23 C6.60406879 20.15649404 6.49150146 17.3351283 6.34375 14.46875 C6.2303125 13.6540625 6.116875 12.839375 6 12 C5.34 11.67 4.68 11.34 4 11 C4 14.96 4 18.92 4 23 C2.68 23.33 1.36 23.66 0 24 C-2.44986932 21.55013068 -2.25631311 20.862922 -2.265625 17.5 C-2.26820313 16.613125 -2.27078125 15.72625 -2.2734375 14.8125 C-2.26183594 13.4203125 -2.26183594 13.4203125 -2.25 12 C-2.25773437 11.071875 -2.26546875 10.14375 -2.2734375 9.1875 C-2.27085937 8.300625 -2.26828125 7.41375 -2.265625 6.5 C-2.26336914 5.6853125 -2.26111328 4.870625 -2.25878906 4.03125 C-2 2 -2 2 0 0 Z " fill="#EAA2A3" transform="translate(298,274)"/>
<path d="M0 0 C3.47060168 2.06759249 5.77725393 4.10944433 7 8 C7.19569268 11.71816101 7.17990239 14.46029282 6 18 C5.34 18 4.68 18 4 18 C3.71125 18.639375 3.4225 19.27875 3.125 19.9375 C2 22 2 22 0 23 C-4.79937735 23.51816286 -8.73409126 23.71207367 -13 21.3125 C-16.1508565 17.66932217 -17.0255738 15.40655896 -16.9375 10.5625 C-15.76192992 6.09533368 -14.20335403 4.28148461 -11 1 C-7.53749757 -0.73125121 -3.78591771 -0.47815224 0 0 Z M-11 11 C-10 13 -10 13 -10 13 Z M-5 14 C-5.33 15.32 -5.66 16.64 -6 18 C-5.01 17.67 -4.02 17.34 -3 17 C-3.66 16.01 -4.32 15.02 -5 14 Z " fill="#F2C6BC" transform="translate(437,198)"/>
<path d="M0 0 C2.125 0.375 2.125 0.375 4 1 C4.78395368 4.60355181 5.25266314 8.13872012 5.5625 11.8125 C5.64628906 12.78832031 5.73007812 13.76414062 5.81640625 14.76953125 C5.87699219 15.50558594 5.93757813 16.24164063 6 17 C6.03739497 14.08076276 6.03739497 14.08076276 5.8125 11.5 C6 9 6 9 7.23046875 7.3671875 C9.45850113 5.64574968 10.70966882 5.59709669 13.5 5.625 C14.2734375 5.61726563 15.046875 5.60953125 15.84375 5.6015625 C18.57668122 6.10656066 19.40522744 6.73220416 21 9 C22.1997456 13.70558902 22.8929749 18.33052518 20.5625 22.6875 C16.97742504 24.5237579 13.95177704 24.56685326 10 24 C7.5 23 7.5 23 6 22 C5.01 22.66 4.02 23.32 3 24 C0.3125 23.625 0.3125 23.625 -2 23 C-2.05789006 19.54173658 -2.09355821 16.08359707 -2.125 12.625 C-2.14175781 11.64015625 -2.15851563 10.6553125 -2.17578125 9.640625 C-2.18222656 8.69960938 -2.18867188 7.75859375 -2.1953125 6.7890625 C-2.20578613 5.91975098 -2.21625977 5.05043945 -2.22705078 4.15478516 C-2 2 -2 2 0 0 Z " fill="#FDE0DE" transform="translate(257,274)"/>
<path d="M0 0 C1.38638672 -0.0309375 1.38638672 -0.0309375 2.80078125 -0.0625 C3.68894531 -0.06765625 4.57710937 -0.0728125 5.4921875 -0.078125 C6.30800293 -0.0874707 7.12381836 -0.09681641 7.96435547 -0.10644531 C10.65800725 0.33793114 11.53146738 1.05932799 13.125 3.25 C13.41796875 6.60546875 13.41796875 6.60546875 13.3125 10.4375 C13.28542969 11.70980469 13.25835937 12.98210937 13.23046875 14.29296875 C13.19566406 15.26878906 13.16085938 16.24460937 13.125 17.25 C9.375 18.375 9.375 18.375 7.125 17.25 C7.125 13.62 7.125 9.99 7.125 6.25 C6.465 6.25 5.805 6.25 5.125 6.25 C5.14820313 6.86488281 5.17140625 7.47976563 5.1953125 8.11328125 C5.22238281 9.32564453 5.22238281 9.32564453 5.25 10.5625 C5.27320313 11.36300781 5.29640625 12.16351563 5.3203125 12.98828125 C5.125 15.25 5.125 15.25 3.125 18.25 C1.475 17.92 -0.175 17.59 -1.875 17.25 C-2.205 13.95 -2.535 10.65 -2.875 7.25 C-2.99875 8.69375 -3.1225 10.1375 -3.25 11.625 C-3.625 16 -3.625 16 -5.875 18.25 C-8.5 17.875 -8.5 17.875 -10.875 17.25 C-10.90184679 14.60409986 -10.92176357 11.95846904 -10.9375 9.3125 C-10.94587891 8.55775391 -10.95425781 7.80300781 -10.96289062 7.02539062 C-10.97152441 5.10005687 -10.92724333 3.17464419 -10.875 1.25 C-8.5728275 -1.0521725 -3.09057726 0.01709863 0 0 Z " fill="#EDA2A0" transform="translate(182.875,279.75)"/>
<path d="M0 0 C1.25393555 0.02707031 1.25393555 0.02707031 2.53320312 0.0546875 C4.58513228 0.10158874 6.63646756 0.17332589 8.6875 0.25 C7.88678098 4.11326289 6.3689791 6.32475007 3.6875 9.25 C3.0275 9.25 2.3675 9.25 1.6875 9.25 C1.28785034 10.13860718 1.28785034 10.13860718 0.88012695 11.04516602 C-0.33695218 13.29520525 -1.57549628 14.74331612 -3.39453125 16.52734375 C-3.99716797 17.12353516 -4.59980469 17.71972656 -5.22070312 18.33398438 C-5.84912109 18.94564453 -6.47753906 19.55730469 -7.125 20.1875 C-7.74181641 20.79529297 -8.35863281 21.40308594 -8.99414062 22.02929688 C-10.20204782 23.21923308 -11.41306415 24.40602294 -12.62744141 25.58935547 C-14.15887978 27.09860551 -15.6479595 28.64036496 -17.13671875 30.19140625 C-19.3125 32.25 -19.3125 32.25 -21.3125 32.25 C-21.580625 32.86875 -21.84875 33.4875 -22.125 34.125 C-23.3125 36.25 -23.3125 36.25 -26.3125 38.25 C-26.9375 35.875 -26.9375 35.875 -27.3125 33.25 C-26.6525 32.59 -25.9925 31.93 -25.3125 31.25 C-23.9925 31.25 -22.6725 31.25 -21.3125 31.25 C-21.3125 30.26 -21.3125 29.27 -21.3125 28.25 C-20.3225 27.92 -19.3325 27.59 -18.3125 27.25 C-17.9825 26.26 -17.6525 25.27 -17.3125 24.25 C-15.9925 24.25 -14.6725 24.25 -13.3125 24.25 C-13.3125 22.93 -13.3125 21.61 -13.3125 20.25 C-11.9925 20.25 -10.6725 20.25 -9.3125 20.25 C-9.3125 18.93 -9.3125 17.61 -9.3125 16.25 C-8.3225 16.25 -7.3325 16.25 -6.3125 16.25 C-5.9825 15.26 -5.6525 14.27 -5.3125 13.25 C-4.3225 13.25 -3.3325 13.25 -2.3125 13.25 C-2.35375 12.46625 -2.395 11.6825 -2.4375 10.875 C-2.3125 8.25 -2.3125 8.25 -0.3125 6.25 C1.0075 6.25 2.3275 6.25 3.6875 6.25 C3.6875 4.93 3.6875 3.61 3.6875 2.25 C0.0575 2.25 -3.5725 2.25 -7.3125 2.25 C-7.9725 3.57 -8.6325 4.89 -9.3125 6.25 C-10.8984375 7.48046875 -10.8984375 7.48046875 -12.6875 8.4375 C-13.27273437 8.76105469 -13.85796875 9.08460938 -14.4609375 9.41796875 C-16.3902796 10.28495159 -18.24937694 10.80011193 -20.3125 11.25 C-19.42282656 10.16160226 -18.52538426 9.07955392 -17.625 8 C-17.12613281 7.39671875 -16.62726563 6.7934375 -16.11328125 6.171875 C-10.79201628 0.49278093 -7.56217412 -0.31036547 0 0 Z " fill="#EDB7B2" transform="translate(189.3125,195.75)"/>
<path d="M0 0 C2.87112202 0.2035497 3.99012007 0.55632505 6.5 2.125 C8.56851618 5.4863388 8.48505011 7.68209911 8 11.5625 C7.0625 14 7.0625 14 5 15.5625 C1.87722888 16.18941996 -0.88013962 16.21575596 -4 15.5625 C-6.80788325 13.16552649 -7.77972028 11.66389859 -8.5 8.0625 C-7.48966723 3.01083613 -5.18794073 0.27101183 0 0 Z M-6 7.5625 C-5 9.5625 -5 9.5625 -5 9.5625 Z M0 10.5625 C-0.33 11.8825 -0.66 13.2025 -1 14.5625 C-0.01 14.2325 0.98 13.9025 2 13.5625 C1.34 12.5725 0.68 11.5825 0 10.5625 Z " fill="#C68180" transform="translate(432,201.4375)"/>
<path d="M0 0 C1.875 0.1875 1.875 0.1875 4 1 C6.06761357 4.61832375 6.5252722 7.88536779 6 12 C4.4375 14.375 4.4375 14.375 2 16 C-1.77870517 16.48092611 -4.33793677 16.22538323 -7.9375 15 C-10 13 -10 13 -10.5 9.0625 C-10.27595899 5.58666375 -9.69029987 3.39137766 -7 1 C-6.01 1 -5.02 1 -4 1 C-4.33 2.32 -4.66 3.64 -5 5 C-3.02 5 -1.04 5 1 5 C0.67 3.35 0.34 1.7 0 0 Z " fill="#FCE7E4" transform="translate(323,282)"/>
<path d="M0 0 C-0.33 1.98 -0.66 3.96 -1 6 C0.98 6 2.96 6 5 6 C4.67 4.35 4.34 2.7 4 1 C5.65 1 7.3 1 9 1 C10.73265104 4.46530209 10.4643626 8.21107035 10 12 C8.5 14.5625 8.5 14.5625 6 16 C2.51699208 16.46807221 -0.78897726 16.60551137 -4 15 C-5.70128735 10.93581354 -6.58620558 7.39654188 -6 3 C-3.95959224 0.95959224 -2.91674756 0 0 0 Z " fill="#FDECEA" transform="translate(236,282)"/>
<path d="M0 0 C6.8359375 -0.1953125 6.8359375 -0.1953125 9 0 C12.02840376 3.02840376 11.79354749 6.20239127 12.08203125 10.35546875 C12 13 12 13 10.5625 15.6875 C6.74103047 17.64483805 4.28300594 17.47588955 0 17 C-2 15.6875 -2 15.6875 -3 14 C-3 13.01 -3 12.02 -3 11 C1.455 11.99 1.455 11.99 6 13 C6 12.01 6 11.02 6 10 C3.69 9.67 1.38 9.34 -1 9 C-0.67 6.03 -0.34 3.06 0 0 Z " fill="#FCE4E5" transform="translate(267,281)"/>
<path d="M0 0 C13.53 0 27.06 0 41 0 C41 0.33 41 0.66 41 1 C28.13 1.33 15.26 1.66 2 2 C1.67 4.64 1.34 7.28 1 10 C4.90775699 10.38124458 6.59350683 10.28277786 9.875 8 C13.77003554 5.51812928 17.82766449 5.58233124 22.3125 5.5625 C23.03099121 5.55283203 23.74948242 5.54316406 24.48974609 5.53320312 C26.55078125 5.56640625 26.55078125 5.56640625 30 6 C30.66 6.99 31.32 7.98 32 9 C29.34345343 12.73884332 27.41889613 14.64978174 23 16 C23.33 14.68 23.66 13.36 24 12 C24.99 12 25.98 12 27 12 C27 11.34 27 10.68 27 10 C17.10546102 9.56447765 17.10546102 9.56447765 8 13 C5.19572007 13.36716379 2.85471864 13.23789322 0 13 C-2 11 -2 11 -2.25 7.625 C-2 4 -2 4 0 0 Z " fill="#E8AAA8" transform="translate(256,230)"/>
<path d="M0 0 C1.8871875 0.0309375 1.8871875 0.0309375 3.8125 0.0625 C3.8125 0.7225 3.8125 1.3825 3.8125 2.0625 C4.4725 2.0625 5.1325 2.0625 5.8125 2.0625 C5.8125 4.7025 5.8125 7.3425 5.8125 10.0625 C-0.7875 10.0625 -7.3875 10.0625 -14.1875 10.0625 C-13.1875 5.0625 -13.1875 5.0625 -10.3125 2.8125 C-6.66292625 0.7687387 -4.11727657 -0.06749634 0 0 Z " fill="#FCFBF9" transform="translate(360.1875,197.9375)"/>
<path d="M0 0 C1.258125 -0.04125 2.51625 -0.0825 3.8125 -0.125 C4.52019531 -0.14820313 5.22789062 -0.17140625 5.95703125 -0.1953125 C8 0 8 0 11 2 C12.01990861 5.32629285 12.25661376 8.53571429 12 12 C10.125 14.6875 10.125 14.6875 7 16 C3.85271391 16.20042958 0.96565963 16.11867711 -2 15 C-4.24187957 11.69617747 -4.17861738 8.92958245 -4 5 C-2.68 4.34 -1.36 3.68 0 3 C0 5.31 0 7.62 0 10 C1.65 9.67 3.3 9.34 5 9 C5 6.69 5 4.38 5 2 C3.35 2 1.7 2 0 2 C0 1.34 0 0.68 0 0 Z " fill="#F5D4D1" transform="translate(202,282)"/>
<path d="M0 0 C4.70588235 0.70588235 4.70588235 0.70588235 6 2 C6.08685603 3.56172745 6.10702219 5.12729344 6.09765625 6.69140625 C6.09443359 7.63564453 6.09121094 8.57988281 6.08789062 9.55273438 C6.07951172 10.54595703 6.07113281 11.53917969 6.0625 12.5625 C6.05798828 13.55958984 6.05347656 14.55667969 6.04882812 15.58398438 C6.03700007 18.05604849 6.02051849 20.52799518 6 23 C1.25 24.125 1.25 24.125 -1 23 C-1.02887512 19.35418313 -1.04675585 15.70839537 -1.0625 12.0625 C-1.07087891 11.02158203 -1.07925781 9.98066406 -1.08789062 8.90820312 C-1.09272461 7.42416992 -1.09272461 7.42416992 -1.09765625 5.91015625 C-1.10289307 4.99371338 -1.10812988 4.07727051 -1.11352539 3.13305664 C-1 1 -1 1 0 0 Z " fill="#EDB0AE" transform="translate(289,274)"/>
<path d="M0 0 C0.78310547 0.48339844 0.78310547 0.48339844 1.58203125 0.9765625 C1.58203125 1.6365625 1.58203125 2.2965625 1.58203125 2.9765625 C-0.89296875 2.4815625 -0.89296875 2.4815625 -3.41796875 1.9765625 C-3.41796875 1.3165625 -3.41796875 0.6565625 -3.41796875 -0.0234375 C-7.04796875 -0.0234375 -10.67796875 -0.0234375 -14.41796875 -0.0234375 C-14.41796875 0.6365625 -14.41796875 1.2965625 -14.41796875 1.9765625 C-15.96484375 2.4096875 -15.96484375 2.4096875 -17.54296875 2.8515625 C-20.86804872 3.79965048 -24.14548328 4.85912844 -27.41796875 5.9765625 C-27.74796875 4.6565625 -28.07796875 3.3365625 -28.41796875 1.9765625 C-32.04796875 1.9765625 -35.67796875 1.9765625 -39.41796875 1.9765625 C-39.29421875 4.049375 -39.29421875 4.049375 -39.16796875 6.1640625 C-39.15662208 9.76095788 -39.34079201 10.85050717 -41.29296875 14.0390625 C-43.41796875 15.9765625 -43.41796875 15.9765625 -45.41796875 15.9765625 C-45.41796875 16.6365625 -45.41796875 17.2965625 -45.41796875 17.9765625 C-48.05661082 21.0061145 -50.82195776 23.178557 -54.41796875 24.9765625 C-55.07796875 24.6465625 -55.73796875 24.3165625 -56.41796875 23.9765625 C-55.50273437 23.15414062 -54.5875 22.33171875 -53.64453125 21.484375 C-44.33486904 12.94478163 -44.33486904 12.94478163 -41.41796875 0.9765625 C-40.41796875 -0.0234375 -40.41796875 -0.0234375 -37.546875 -0.15625 C-36.36996094 -0.15367187 -35.19304687 -0.15109375 -33.98046875 -0.1484375 C-32.21896484 -0.15230469 -32.21896484 -0.15230469 -30.421875 -0.15625 C-27.41796875 -0.0234375 -27.41796875 -0.0234375 -25.41796875 0.9765625 C-25.41796875 1.6365625 -25.41796875 2.2965625 -25.41796875 2.9765625 C-24.93070313 2.6878125 -24.4434375 2.3990625 -23.94140625 2.1015625 C-16.87190588 -1.60028496 -7.57133607 -3.2046689 0 0 Z " fill="#EEBAB6" transform="translate(244.41796875,196.0234375)"/>
<path d="M0 0 C1.5675 -0.020625 3.135 -0.04125 4.75 -0.0625 C6.07257813 -0.07990234 6.07257813 -0.07990234 7.421875 -0.09765625 C10 0 10 0 12.203125 0.56640625 C14.08672935 1.22519495 14.08672935 1.22519495 16 0 C16.33 1.32 16.66 2.64 17 4 C15.68 4 14.36 4 13 4 C13 7.63 13 11.26 13 15 C11.68 15 10.36 15 9 15 C9 11.37 9 7.74 9 4 C7.35 4 5.7 4 4 4 C4 7.63 4 11.26 4 15 C2.68 15 1.36 15 0 15 C0 10.05 0 5.1 0 0 Z " fill="#FBE1DD" transform="translate(173,281)"/>
<path d="M0 0 C0.66 0 1.32 0 2 0 C2 0.66 2 1.32 2 2 C1.34 2 0.68 2 0 2 C-0.12375 3.051875 -0.2475 4.10375 -0.375 5.1875 C-0.92006186 8.51237736 -1.76571954 10.91429885 -3 14 C-3.3813074 16.32597511 -3.72460254 18.65912158 -4 21 C-3.34 21 -2.68 21 -2 21 C-1.67 21.66 -1.34 22.32 -1 23 C6.54938268 25.38401558 13.18417856 25.56316429 21 24 C20 26 20 26 18 27.0625 C10.49149199 29.40890875 4.1456808 29.63000585 -3 26 C-5.92029938 23.72074194 -6.78896155 22.17285083 -7.44140625 18.546875 C-7.93011605 11.10184913 -5.72657135 6.62998804 -1 1 C-0.67 0.67 -0.34 0.34 0 0 Z " fill="#F1BDB9" transform="translate(346,227)"/>
<path d="M0 0 C1.28429711 2.56859422 0.68569631 3.25721476 0 6 C-0.06743348 8.08234592 -0.08514472 10.16668557 -0.0625 12.25 C-0.04896484 13.86648437 -0.04896484 13.86648437 -0.03515625 15.515625 C-0.02355469 16.33546875 -0.01195312 17.1553125 0 18 C0.66 18 1.32 18 2 18 C2 18.99 2 19.98 2 21 C10.98846595 22.218217 19.09777898 21.67490241 28 20 C28.7734375 19.87367188 29.546875 19.74734375 30.34375 19.6171875 C30.8903125 19.41351563 31.436875 19.20984375 32 19 C32.495 17.515 32.495 17.515 33 16 C34.32 16.33 35.64 16.66 37 17 C29.11092041 23.15587271 20.77309441 26.59223374 10.625 25.875 C5.8008903 25.15486805 1.78716299 23.89806093 -1.63671875 20.26171875 C-4.236693 15.94829442 -3.50626295 10.86791299 -3 6 C-2.24008644 3.63291293 -1.38871085 2.08306627 0 0 Z " fill="#F7C8C5" transform="translate(242,230)"/>
<path d="M0 0 C-1 3 -1 3 -3.14453125 4.31640625 C-4.02496094 4.72761719 -4.90539062 5.13882813 -5.8125 5.5625 C-6.68519531 5.97628906 -7.55789063 6.39007813 -8.45703125 6.81640625 C-9.29621094 7.20699219 -10.13539063 7.59757813 -11 8 C-12.33557043 8.66217358 -13.66978183 9.32713906 -15 10 C-15 10.66 -15 11.32 -15 12 C-17.58105185 14.25842037 -19.61379882 15.95455078 -23.14453125 16.0703125 C-28.57553681 15.42446319 -28.57553681 15.42446319 -30 14 C-30.23529412 8.47058824 -30.23529412 8.47058824 -29 6 C-28.34 6 -27.68 6 -27 6 C-27 5.34 -27 4.68 -27 4 C-25.35 3.67 -23.7 3.34 -22 3 C-22 2.34 -22 1.68 -22 1 C-19.2718186 0.63604195 -16.54296095 0.28355188 -13.8125 -0.0625 C-13.04357422 -0.16626953 -12.27464844 -0.27003906 -11.48242188 -0.37695312 C-7.40719806 -0.88416982 -4.01801421 -1.15145497 0 0 Z M-25.25 6.4375 C-27.25986944 8.80383895 -27.25986944 8.80383895 -26.8125 11.3125 C-26.544375 11.869375 -26.27625 12.42625 -26 13 C-20.50544744 12.5604358 -17.36580903 11.34402394 -13 8 C-12.43667969 7.56945312 -11.87335938 7.13890625 -11.29296875 6.6953125 C-9.81252721 5.52344074 -8.40010725 4.2667637 -7 3 C-7 2.34 -7 1.68 -7 1 C-13.24426545 1 -20.47115604 2.07596354 -25.25 6.4375 Z " fill="#EDAEB1" transform="translate(383,229)"/>
<path d="M0 0 C1.79244141 0.01740234 1.79244141 0.01740234 3.62109375 0.03515625 C5.41740234 0.04869141 5.41740234 0.04869141 7.25 0.0625 C8.17683594 0.07410156 9.10367188 0.08570313 10.05859375 0.09765625 C10.04699219 0.80792969 10.03539063 1.51820313 10.0234375 2.25 C10.01441406 3.16910156 10.00539063 4.08820313 9.99609375 5.03515625 C9.98449219 5.95167969 9.97289063 6.86820313 9.9609375 7.8125 C9.79910326 10.06358952 9.79910326 10.06358952 11.05859375 11.09765625 C15.7094809 11.40289587 15.7094809 11.40289587 20.05859375 10.09765625 C19.39859375 11.41765625 18.73859375 12.73765625 18.05859375 14.09765625 C16.60036163 14.12466055 15.141987 14.14405412 13.68359375 14.16015625 C12.87148437 14.17175781 12.059375 14.18335938 11.22265625 14.1953125 C9.05859375 14.09765625 9.05859375 14.09765625 7.05859375 13.09765625 C6.64453125 10.8125 6.64453125 10.8125 6.43359375 8.03515625 C6.35882813 7.11605469 6.2840625 6.19695312 6.20703125 5.25 C6.15804687 4.53972656 6.1090625 3.82945312 6.05859375 3.09765625 C3.08859375 3.09765625 0.11859375 3.09765625 -2.94140625 3.09765625 C-3.12703125 4.50015625 -3.31265625 5.90265625 -3.50390625 7.34765625 C-3.60832031 8.1365625 -3.71273437 8.92546875 -3.8203125 9.73828125 C-3.94352344 12.13890738 -3.7730039 13.84686502 -2.94140625 16.09765625 C-2.28140625 16.42765625 -1.62140625 16.75765625 -0.94140625 17.09765625 C-0.31640625 19.66015625 -0.31640625 19.66015625 0.05859375 22.09765625 C-2.95714896 21.05774497 -3.92131676 20.12850796 -5.69140625 17.41015625 C-7.6167136 12.30809178 -7.64572375 8.75127124 -5.50390625 3.72265625 C-3.35432841 0.11136549 -3.35432841 0.11136549 0 0 Z " fill="#F1B9B5" transform="translate(62.94140625,228.90234375)"/>
<path d="M0 0 C0.33 0 0.66 0 1 0 C1.495 3.96 1.495 3.96 2 8 C2.66 8 3.32 8 4 8 C3 11 3 11 0 14 C5.28 14 10.56 14 16 14 C16 14.33 16 14.66 16 15 C10.39 15 4.78 15 -1 15 C-1.495 13.515 -1.495 13.515 -2 12 C-13.6055344 12.43315379 -21.26649051 13.0723415 -30.10546875 21.28125 C-31.9888755 22.98990767 -33.94454919 24.50512668 -36 26 C-36 24.35 -36 22.7 -36 21 C-34.35 20.67 -32.7 20.34 -31 20 C-31 19.01 -31 18.02 -31 17 C-30.34 17 -29.68 17 -29 17 C-29 16.01 -29 15.02 -29 14 C-27.68 14 -26.36 14 -25 14 C-24.67 13.01 -24.34 12.02 -24 11 C-16.08 11 -8.16 11 0 11 C0 7.37 0 3.74 0 0 Z " fill="#F4C9C2" transform="translate(367,198)"/>
<path d="M0 0 C0.78375 0.165 1.5675 0.33 2.375 0.5 C5.81917573 1.17913446 5.81917573 1.17913446 9 0 C10.875 -0.1328125 10.875 -0.1328125 13 -0.125 C14.051875 -0.12886719 14.051875 -0.12886719 15.125 -0.1328125 C17 0 17 0 19 1 C19 1.66 19 2.32 19 3 C18.01 3.66 17.02 4.32 16 5 C16 5.99 16 6.98 16 8 C14.02 8 12.04 8 10 8 C10.33 6.02 10.66 4.04 11 2 C9.35 2.99 7.7 3.98 6 5 C6.33 8.3 6.66 11.6 7 15 C6.34 15 5.68 15 5 15 C4.34 13.35 3.68 11.7 3 10 C2.608125 11.134375 2.21625 12.26875 1.8125 13.4375 C0 17 0 17 -2.5625 18 C-5 18 -5 18 -7 17 C-6.67 16.34 -6.34 15.68 -6 15 C-4.35 15.33 -2.7 15.66 -1 16 C-0.814375 14.3603125 -0.814375 14.3603125 -0.625 12.6875 C0 9 0 9 2 6 C2.38499891 4.34450469 2.72793135 2.6777567 3 1 C2.01 0.67 1.02 0.34 0 0 Z " fill="#E39796" transform="translate(225,280)"/>
<path d="M0 0 C0.74362793 0.01047363 1.48725586 0.02094727 2.25341797 0.03173828 C3.46191406 0.04140625 3.46191406 0.04140625 4.69482422 0.05126953 C5.95746094 0.07640625 5.95746094 0.07640625 7.24560547 0.10205078 C8.51984375 0.11558594 8.51984375 0.11558594 9.81982422 0.12939453 C11.9202043 0.15299431 14.02043991 0.18886595 16.12060547 0.22705078 C15.54007337 3.52823872 14.57192448 5.13839155 12.17919922 7.46142578 C11.59589844 8.03505859 11.01259766 8.60869141 10.41162109 9.19970703 C9.79996094 9.78623047 9.18830078 10.37275391 8.55810547 10.97705078 C7.94257813 11.57904297 7.32705078 12.18103516 6.69287109 12.80126953 C5.17545734 14.28339459 3.6488995 15.75614748 2.12060547 17.22705078 C1.79060547 16.23705078 1.46060547 15.24705078 1.12060547 14.22705078 C2.49560547 11.66455078 2.49560547 11.66455078 4.12060547 9.22705078 C4.45060547 8.56705078 4.78060547 7.90705078 5.12060547 7.22705078 C5.78060547 7.55705078 6.44060547 7.88705078 7.12060547 8.22705078 C7.78060547 6.57705078 8.44060547 4.92705078 9.12060547 3.22705078 C4.83060547 2.89705078 0.54060547 2.56705078 -3.87939453 2.22705078 C-1.87939453 0.22705078 -1.87939453 0.22705078 0 0 Z " fill="#EEB5B0" transform="translate(148.87939453125,195.77294921875)"/>
<path d="M0 0 C3.27066566 -0.08706892 6.54103365 -0.14041241 9.8125 -0.1875 C10.74126953 -0.21263672 11.67003906 -0.23777344 12.62695312 -0.26367188 C13.9659668 -0.27817383 13.9659668 -0.27817383 15.33203125 -0.29296875 C16.56530151 -0.31653442 16.56530151 -0.31653442 17.82348633 -0.34057617 C20 0 20 0 21.7734375 1.30859375 C23.79085084 4.09056819 23.27978352 6.8345322 23.1875 10.1875 C23.16042969 11.45980469 23.13335937 12.73210937 23.10546875 14.04296875 C23.07066406 15.01878906 23.03585938 15.99460937 23 17 C21.68 16.67 20.36 16.34 19 16 C18.96261719 15.40832031 18.92523438 14.81664062 18.88671875 14.20703125 C18.48623099 9.39332549 17.9614965 5.99158223 15 2 C14.01 2.33 13.02 2.66 12 3 C11.34 2.67 10.68 2.34 10 2 C8.29636178 1.77377919 6.58671299 1.59111527 4.875 1.4375 C3.96492187 1.35371094 3.05484375 1.26992188 2.1171875 1.18359375 C1.41851562 1.12300781 0.71984375 1.06242187 0 1 C0 0.67 0 0.34 0 0 Z " fill="#F8DCDA" transform="translate(173,280)"/>
<path d="M0 0 C0 0.33 0 0.66 0 1 C-0.8353125 1.14695313 -0.8353125 1.14695313 -1.6875 1.296875 C-8.6054067 2.65241077 -14.14826817 5.09884544 -20 9 C-10.38729715 10.2828063 -10.38729715 10.2828063 -1.859375 7.21875 C-0.66711086 5.1789728 0.20287486 3.21808734 1 1 C1.33 1 1.66 1 2 1 C2.2973933 4.27132629 2.40157663 6.33070561 0.6875 9.1875 C-3.65196009 12.11411262 -8.15210755 11.41820457 -13.25 11.25 C-14.28125 11.23195312 -15.3125 11.21390625 -16.375 11.1953125 C-18.91761064 11.14822712 -21.45833162 11.0824805 -24 11 C-23.67 9.68 -23.34 8.36 -23 7 C-22.01 7 -21.02 7 -20 7 C-20 6.34 -20 5.68 -20 5 C-19.34 5 -18.68 5 -18 5 C-18 4.34 -18 3.68 -18 3 C-11.75690073 0.22528921 -6.80203375 -0.37634203 0 0 Z " fill="#ECAEAB" transform="translate(295,208)"/>
<path d="M0 0 C1.32 0.33 2.64 0.66 4 1 C1.46333408 4.83927816 -1.06099293 7.58288202 -5 10 C-11.24872424 11.16264626 -17.70733737 10.51852052 -24 10 C-23.31032637 5.71264741 -22.41821424 3.79672074 -19 1 C-18.34 1 -17.68 1 -17 1 C-17 1.99 -17 2.98 -17 4 C-18.32 5.32 -19.64 6.64 -21 8 C-16.05 8 -11.1 8 -6 8 C-5.67 6.35 -5.34 4.7 -5 3 C-3.35 2.67 -1.7 2.34 0 2 C0 1.34 0 0.68 0 0 Z " fill="#E98F8E" transform="translate(161,264)"/>
<path d="M0 0 C0.66 0.33 1.32 0.66 2 1 C1.67 1.66 1.34 2.32 1 3 C0.34 3 -0.32 3 -1 3 C-1 3.66 -1 4.32 -1 5 C-1.66 5 -2.32 5 -3 5 C-3.309375 6.0828125 -3.309375 6.0828125 -3.625 7.1875 C-5.45248163 10.9255306 -7.70438806 12.49246917 -11 15 C-11.66 14.67 -12.32 14.34 -13 14 C-13.433125 14.8971875 -13.433125 14.8971875 -13.875 15.8125 C-15 18 -15 18 -17 21 C-17.66 21 -18.32 21 -19 21 C-19.33 21.99 -19.66 22.98 -20 24 C-20.66 24 -21.32 24 -22 24 C-20.54708607 19.37631507 -17.88294186 16.28049337 -14.625 12.8125 C-13.90183594 12.01295898 -13.90183594 12.01295898 -13.1640625 11.19726562 C-10.66231296 8.49496822 -8.46612383 6.33881086 -5 5 C-5 4.34 -5 3.68 -5 3 C-2.625 1.3125 -2.625 1.3125 0 0 Z " fill="#E7B9B6" transform="translate(265,206)"/>
<path d="M0 0 C1.32 0 2.64 0 4 0 C3.43179252 5.45479185 2.05362055 9.91059256 0 15 C-1.66611905 15.042721 -3.33382885 15.04063832 -5 15 C-6.81298005 13.18701995 -6.67555005 10.38818302 -7.0625 7.9375 C-7.23910156 6.83277344 -7.41570312 5.72804688 -7.59765625 4.58984375 C-7.73042969 3.73519531 -7.86320313 2.88054687 -8 2 C-6.046875 2.8359375 -6.046875 2.8359375 -4 4 C-3.25 6.625 -3.25 6.625 -3 9 C-2.34 9 -1.68 9 -1 9 C-0.67 6.03 -0.34 3.06 0 0 Z " fill="#FEEFEB" transform="translate(224,281)"/>
<path d="M0 0 C0.99 0 1.98 0 3 0 C1.44200307 3.76878586 -0.909366 6.11271145 -3.8125 8.9375 C-4.66457031 9.77152344 -5.51664063 10.60554687 -6.39453125 11.46484375 C-7.25433594 12.30144531 -8.11414063 13.13804687 -9 14 C-9.89074219 14.92941406 -10.78148437 15.85882813 -11.69921875 16.81640625 C-14 19 -14 19 -16 19 C-16.268125 19.61875 -16.53625 20.2375 -16.8125 20.875 C-18 23 -18 23 -21 25 C-21.625 22.625 -21.625 22.625 -22 20 C-21.34 19.34 -20.68 18.68 -20 18 C-18.68 18 -17.36 18 -16 18 C-16 17.01 -16 16.02 -16 15 C-15.01 14.67 -14.02 14.34 -13 14 C-12.67 13.01 -12.34 12.02 -12 11 C-10.68 11 -9.36 11 -8 11 C-8 9.68 -8 8.36 -8 7 C-6.68 7 -5.36 7 -4 7 C-4 5.68 -4 4.36 -4 3 C-3.01 3 -2.02 3 -1 3 C-0.67 2.01 -0.34 1.02 0 0 Z " fill="#F9ABA4" transform="translate(184,209)"/>
<path d="M0 0 C0 0.66 0 1.32 0 2 C-0.66 2 -1.32 2 -2 2 C-2 2.66 -2 3.32 -2 4 C-3.375 5.625 -3.375 5.625 -5 7 C-5.66 7 -6.32 7 -7 7 C-7 7.66 -7 8.32 -7 9 C-7.66 9 -8.32 9 -9 9 C-9 9.66 -9 10.32 -9 11 C-9.66 11 -10.32 11 -11 11 C-11 11.66 -11 12.32 -11 13 C-10.34 13 -9.68 13 -9 13 C-8.97313447 14.97909398 -8.95366625 16.95828971 -8.9375 18.9375 C-8.92589844 20.03964844 -8.91429687 21.14179688 -8.90234375 22.27734375 C-9 25 -9 25 -10 26 C-15.95658462 26.43634266 -21.44276587 26.40312827 -27 24 C-23.9020403 22.45102015 -20.73783448 23.16760461 -17.375 23.4375 C-16.66859375 23.48970703 -15.9621875 23.54191406 -15.234375 23.59570312 C-13.48920013 23.72541207 -11.74454275 23.86204954 -10 24 C-10.11362262 22.5199159 -10.24122908 21.04089926 -10.375 19.5625 C-10.44460938 18.73878906 -10.51421875 17.91507813 -10.5859375 17.06640625 C-10.72257812 16.38449219 -10.85921875 15.70257813 -11 15 C-11.66 14.67 -12.32 14.34 -13 14 C-13 12.68 -13 11.36 -13 10 C-12.01 10 -11.02 10 -10 10 C-9.9175 9.21625 -9.835 8.4325 -9.75 7.625 C-9 5 -9 5 -6.9375 3.6875 C-5.9784375 3.3471875 -5.9784375 3.3471875 -5 3 C-5 2.34 -5 1.68 -5 1 C-3 0 -3 0 0 0 Z " fill="#EEA4A1" transform="translate(397,228)"/>
<path d="M0 0 C1.21236328 0.04060547 1.21236328 0.04060547 2.44921875 0.08203125 C3.06410156 0.11683594 3.67898438 0.15164063 4.3125 0.1875 C4.3125 0.5175 4.3125 0.8475 4.3125 1.1875 C1.6725 1.1875 -0.9675 1.1875 -3.6875 1.1875 C-4.0175 4.1575 -4.3475 7.1275 -4.6875 10.1875 C-2.3775 10.5175 -0.0675 10.8475 2.3125 11.1875 C2.3125 12.1775 2.3125 13.1675 2.3125 14.1875 C-0.81040635 13.70171457 -3.68330359 13.1888988 -6.6875 12.1875 C-6.3575 13.8375 -6.0275 15.4875 -5.6875 17.1875 C-7.02083333 17.1875 -8.35416667 17.1875 -9.6875 17.1875 C-9.6875 11.9075 -9.6875 6.6275 -9.6875 1.1875 C-9.3575 1.1875 -9.0275 1.1875 -8.6875 1.1875 C-8.3575 4.4875 -8.0275 7.7875 -7.6875 11.1875 C-7.65010503 8.26826276 -7.65010503 8.26826276 -7.875 5.6875 C-7.6875 3.1875 -7.6875 3.1875 -6.46875 1.54296875 C-4.16789544 -0.20790084 -2.85567181 -0.12415964 0 0 Z " fill="#D48889" transform="translate(270.6875,279.8125)"/>
<path d="M0 0 C0.66 0.33 1.32 0.66 2 1 C0.77023438 2.16015625 0.77023438 2.16015625 -0.484375 3.34375 C-8.68387859 11.13500127 -8.68387859 11.13500127 -14 21 C-14 21.66 -14 22.32 -14 23 C-12.02 23.33 -10.04 23.66 -8 24 C-8 24.33 -8 24.66 -8 25 C-10.33294775 25.04241723 -12.66702567 25.04092937 -15 25 C-15.33 24.67 -15.66 24.34 -16 24 C-15.93588312 22.1843265 -15.79902523 20.3709514 -15.625 18.5625 C-15.48964844 17.07943359 -15.48964844 17.07943359 -15.3515625 15.56640625 C-15 13 -15 13 -14 11 C-13.34 11 -12.68 11 -12 11 C-12.33 9.35 -12.66 7.7 -13 6 C-10.69 6 -8.38 6 -6 6 C-5.67 5.34 -5.34 4.68 -5 4 C-5.66 3.67 -6.32 3.34 -7 3 C-5.5459375 2.5359375 -5.5459375 2.5359375 -4.0625 2.0625 C-1.15934208 1.30476658 -1.15934208 1.30476658 0 0 Z " fill="#F0C8C7" transform="translate(211,216)"/>
<path d="M0 0 C1.32 0 2.64 0 4 0 C3.67 1.65 3.34 3.3 3 5 C3.66 5 4.32 5 5 5 C5 5.66 5 6.32 5 7 C4.34 7 3.68 7 3 7 C3 10.96 3 14.92 3 19 C1.68 19 0.36 19 -1 19 C-1 15.04 -1 11.08 -1 7 C-1.66 7 -2.32 7 -3 7 C-3 6.01 -3 5.02 -3 4 C-2.34 3.67 -1.68 3.34 -1 3 C-0.67 2.01 -0.34 1.02 0 0 Z " fill="#FDEEED" transform="translate(307,277)"/>
<path d="M0 0 C1.10601562 -0.0309375 1.10601562 -0.0309375 2.234375 -0.0625 C4.375 -0.078125 4.375 -0.078125 8 0.25 C8.66 1.24 9.32 2.23 10 3.25 C7.34345343 6.98884332 5.41889613 8.89978174 1 10.25 C1.33 8.93 1.66 7.61 2 6.25 C2.99 6.25 3.98 6.25 5 6.25 C5 5.59 5 4.93 5 4.25 C-0.28 4.25 -5.56 4.25 -11 4.25 C-10.67 3.26 -10.34 2.27 -10 1.25 C-6.83928451 -0.33035774 -3.46725496 0.02424654 0 0 Z " fill="#ECC0B7" transform="translate(278,235.75)"/>
<path d="M0 0 C1.47906892 -0.02689216 2.95827483 -0.04634621 4.4375 -0.0625 C5.26121094 -0.07410156 6.08492188 -0.08570313 6.93359375 -0.09765625 C9 0 9 0 10 1 C10.14115161 3.67058851 10.04247107 6.32432238 10 9 C9.01 9 8.02 9 7 9 C7 8.01 7 7.02 7 6 C6.01 6 5.02 6 4 6 C4 6.99 4 7.98 4 9 C2.68 9 1.36 9 0 9 C-1.125 3.375 -1.125 3.375 0 0 Z " fill="#FBE8E4" transform="translate(427,205)"/>
<path d="M0 0 C-4.75 3 -4.75 3 -7 3 C-7.268125 3.598125 -7.53625 4.19625 -7.8125 4.8125 C-9.00987475 7.01819033 -10.04478984 8.43583187 -12 10 C-12.99 10 -13.98 10 -15 10 C-14.979375 10.804375 -14.95875 11.60875 -14.9375 12.4375 C-15 15 -15 15 -16 16 C-16.07258946 18.18639453 -16.08373783 20.37500389 -16.0625 22.5625 C-16.05347656 23.76003906 -16.04445313 24.95757812 -16.03515625 26.19140625 C-16.02355469 27.11824219 -16.01195313 28.04507813 -16 29 C-18.7923426 26.2076574 -18.39896441 24.33999976 -18.5 20.4375 C-18.38432768 13.38148872 -17.01357189 9.00299474 -12 4 C-5.0431622 -1.77071028 -5.0431622 -1.77071028 0 0 Z " fill="#EDAEA9" transform="translate(99,196)"/>
<path d="M0 0 C2.39286884 2.39286884 2.32050616 3.09447094 2.375 6.375 C2.28452305 9.49645486 2.10803947 10.81543257 0.5 13.5625 C-3.14334551 15.65742367 -5.83456807 15.27769546 -10 15 C-10 14.67 -10 14.34 -10 14 C-8.35 14 -6.7 14 -5 14 C-5 13.34 -5 12.68 -5 12 C-5.99 11.67 -6.98 11.34 -8 11 C-8.33 9.68 -8.66 8.36 -9 7 C-5.7 7 -2.4 7 1 7 C0.67 4.69 0.34 2.38 0 0 Z " fill="#F8BBB5" transform="translate(244,283)"/>
<path d="M0 0 C1.65 0 3.3 0 5 0 C5.33 1.65 5.66 3.3 6 5 C5.01 4.34 4.02 3.68 3 3 C-1.95 7.95 -6.9 12.9 -12 18 C-13 16 -13 16 -12.3125 13.4375 C-11 11 -11 11 -8.875 10.1875 C-8.25625 10.125625 -7.6375 10.06375 -7 10 C-6.938125 9.4225 -6.87625 8.845 -6.8125 8.25 C-5.6812921 5.11742429 -3.62052199 3.96539149 -1 2 C-0.67 1.34 -0.34 0.68 0 0 Z " fill="#E9B9B5" transform="translate(178,246)"/>
<path d="M0 0 C0.99 0.33 1.98 0.66 3 1 C-2.0805937 8.90314576 -7.42521459 14.42205345 -15 20 C-15.33 18.68 -15.66 17.36 -16 16 C-15.01 16 -14.02 16 -13 16 C-13 15.01 -13 14.02 -13 13 C-12.01 13 -11.02 13 -10 13 C-9.67 11.68 -9.34 10.36 -9 9 C-7.35 8.67 -5.7 8.34 -4 8 C-3.896875 7.236875 -3.79375 6.47375 -3.6875 5.6875 C-2.95635961 2.82940576 -2.23048087 1.84257115 0 0 Z " fill="#F6C1BB" transform="translate(240,224)"/>
<path d="M0 0 C0.99 0 1.98 0 3 0 C3 4.95 3 9.9 3 15 C1.35 15 -0.3 15 -2 15 C-2.05386629 12.87527424 -2.09273071 10.75016348 -2.125 8.625 C-2.14820313 7.44164062 -2.17140625 6.25828125 -2.1953125 5.0390625 C-2 2 -2 2 0 0 Z " fill="#F2C2C3" transform="translate(298,281)"/>
<path d="M0 0 C0 0.99 0 1.98 0 3 C0.66 3.33 1.32 3.66 2 4 C1.443125 4.04898438 0.88625 4.09796875 0.3125 4.1484375 C-3.58445943 4.5302342 -7.24253951 5.00382227 -11 6.125 C-15.3715269 7.30127431 -19.61799396 7.12732106 -24 6 C-24.66 5.34 -25.32 4.68 -26 4 C-24.9378125 3.87882813 -23.875625 3.75765625 -22.78125 3.6328125 C-15.43470435 2.76984082 -7.22011877 0 0 0 Z " fill="#EFACAA" transform="translate(138,249)"/>
<path d="M0 0 C0.625 1.875 0.625 1.875 1 4 C0.34 4.66 -0.32 5.32 -1 6 C-1.99 6 -2.98 6 -4 6 C-4.226875 6.7425 -4.45375 7.485 -4.6875 8.25 C-6.2589561 11.5425747 -7.99995716 12.97497109 -11 15 C-11.66 15 -12.32 15 -13 15 C-13.20625 15.78375 -13.4125 16.5675 -13.625 17.375 C-15 20 -15 20 -18.125 21.3125 C-19.07375 21.539375 -20.0225 21.76625 -21 22 C-21 21.34 -21 20.68 -21 20 C-19.6206529 18.81311994 -18.23715997 17.6289022 -16.80078125 16.51171875 C-14.38315309 14.48216973 -12.21520067 12.24816497 -10 10 C-6.66666667 6.66666667 -3.33333333 3.33333333 0 0 Z " fill="#F5D4D2" transform="translate(306,228)"/>
<path d="M0 0 C1.37562854 1.28965176 2.70766393 2.62689293 4 4 C4 4.66 4 5.32 4 6 C6.97 6 9.94 6 13 6 C13 5.01 13 4.02 13 3 C12.05125 3.020625 11.1025 3.04125 10.125 3.0625 C7 3 7 3 5 2 C5 1.34 5 0.68 5 0 C8.63 0 12.26 0 16 0 C15.6875 2.875 15.6875 2.875 15 6 C11.27420911 8.48386059 9.41288598 8.3804212 5 8 C2.0625 6.8125 2.0625 6.8125 0 5 C-0.3125 2.3125 -0.3125 2.3125 0 0 Z " fill="#EEAEA8" transform="translate(313,290)"/>
<path d="M0 0 C2.125 0.375 2.125 0.375 4 1 C4 2.98 4 4.96 4 7 C4.66 7 5.32 7 6 7 C6 7.99 6 8.98 6 10 C6.66 10.33 7.32 10.66 8 11 C6.68 11 5.36 11 4 11 C4 14.96 4 18.92 4 23 C2.68 23.33 1.36 23.66 0 24 C-0.33 23.34 -0.66 22.68 -1 22 C0.32 22 1.64 22 3 22 C3 17.05 3 12.1 3 7 C1.68 7.33 0.36 7.66 -1 8 C-1.625 5.125 -1.625 5.125 -2 2 C-1.34 1.34 -0.68 0.68 0 0 Z " fill="#EFB4B1" transform="translate(298,274)"/>
<path d="M0 0 C0.33 0.99 0.66 1.98 1 3 C0.01 3 -0.98 3 -2 3 C-2 4.32 -2 5.64 -2 7 C-1.01 7.33 -0.02 7.66 1 8 C1 10.97 1 13.94 1 17 C-7.25 17 -15.5 17 -24 17 C-22.68 15.35 -21.36 13.7 -20 12 C-14.25 13.875 -14.25 13.875 -12 15 C-10.12620395 15.07033769 -8.24998898 15.0843022 -6.375 15.0625 C-5.37210937 15.05347656 -4.36921875 15.04445312 -3.3359375 15.03515625 C-2.17964844 15.01775391 -2.17964844 15.01775391 -1 15 C-1 13.02 -1 11.04 -1 9 C-1.66 8.67 -2.32 8.34 -3 8 C-3.1875 5.125 -3.1875 5.125 -3 2 C-2.01 1.34 -1.02 0.68 0 0 Z " fill="#FDECE9" transform="translate(386,235)"/>
<path d="M0 0 C0.66 0.33 1.32 0.66 2 1 C3.10536609 5.70948229 3.8859869 10.34358971 1.5625 14.6875 C-2.1307931 16.57918671 -4.8773103 16.27484598 -9 16 C-9 15.67 -9 15.34 -9 15 C-4.545 14.505 -4.545 14.505 0 14 C0 12.02 0 10.04 0 8 C-0.66 8 -1.32 8 -2 8 C-2 7.34 -2 6.68 -2 6 C-3.98 5.34 -5.96 4.68 -8 4 C-8 3.34 -8 2.68 -8 2 C-6.35 2 -4.7 2 -3 2 C-3 2.66 -3 3.32 -3 4 C-1.68 4 -0.36 4 1 4 C0.67 2.68 0.34 1.36 0 0 Z " fill="#E3A3A0" transform="translate(276,282)"/>
<path d="M0 0 C0 4.29 0 8.58 0 13 C-5.94 13 -11.88 13 -18 13 C-18 12.67 -18 12.34 -18 12 C-12.39 12 -6.78 12 -1 12 C-1 9.36 -1 6.72 -1 4 C-1.66 4 -2.32 4 -3 4 C-3 3.34 -3 2.68 -3 2 C-10.92 2.495 -10.92 2.495 -19 3 C-14.20137911 -1.79862089 -6.26399634 -0.06263996 0 0 Z " fill="#F5CCC8" transform="translate(367,196)"/>
<path d="M0 0 C7.00708773 0.15794665 12.67313897 1.15621215 18 6 C20.08168909 9.15982775 20.29722223 11.81944709 20.3125 15.5625 C20.32925781 16.51253906 20.34601563 17.46257812 20.36328125 18.44140625 C20 21 20 21 17 24 C17 18.39 17 12.78 17 7 C15.02 6.34 13.04 5.68 11 5 C10.34 4.34 9.68 3.68 9 3 C6.79749008 2.53993654 6.79749008 2.53993654 4.375 2.375 C3.14910156 2.26285156 3.14910156 2.26285156 1.8984375 2.1484375 C1.27195312 2.09945312 0.64546875 2.05046875 0 2 C0 1.34 0 0.68 0 0 Z " fill="#EFA19E" transform="translate(103,194)"/>
<path d="M0 0 C1.26714844 -0.02578125 2.53429687 -0.0515625 3.83984375 -0.078125 C5.43505859 0.08429688 5.43505859 0.08429688 7.0625 0.25 C7.7225 1.24 8.3825 2.23 9.0625 3.25 C9.7225 3.25 10.3825 3.25 11.0625 3.25 C11.0625 3.91 11.0625 4.57 11.0625 5.25 C10.4025 5.25 9.7425 5.25 9.0625 5.25 C9.0625 5.91 9.0625 6.57 9.0625 7.25 C8.4025 7.25 7.7425 7.25 7.0625 7.25 C6.7325 5.6 6.4025 3.95 6.0625 2.25 C2.1025 2.25 -1.8575 2.25 -5.9375 2.25 C-6.02 3.69375 -6.1025 5.1375 -6.1875 6.625 C-6.328125 9.0859375 -6.328125 9.0859375 -6.9375 11.25 C-8.984375 12.5390625 -8.984375 12.5390625 -10.9375 13.25 C-10.2775 12.26 -9.6175 11.27 -8.9375 10.25 C-8.52006635 8.00354124 -8.52006635 8.00354124 -8.375 5.625 C-7.87747744 -0.64987642 -6.18346469 0.07533155 0 0 Z " fill="#EEB1AE" transform="translate(336.9375,195.75)"/>
<path d="M0 0 C1.32 0 2.64 0 4 0 C4 0.66 4 1.32 4 2 C3.34 2 2.68 2 2 2 C1.566875 2.9590625 1.566875 2.9590625 1.125 3.9375 C0 6 0 6 -2 7 C-5.06242321 7.08711775 -8.10186465 7.1154846 -11.1640625 7.09765625 C-12.07127045 7.0962413 -12.97847839 7.09482635 -13.91317749 7.09336853 C-16.81715155 7.08776096 -19.72104915 7.07520718 -22.625 7.0625 C-24.59114472 7.05748598 -26.55729065 7.0529229 -28.5234375 7.04882812 C-33.3489879 7.03778906 -38.17448097 7.02051935 -43 7 C-43 6.67 -43 6.34 -43 6 C-30.13 5.67 -17.26 5.34 -4 5 C-3.67 4.34 -3.34 3.68 -3 3 C-2.01 3 -1.02 3 0 3 C0 2.01 0 1.02 0 0 Z " fill="#FFEFE9" transform="translate(300,223)"/>
<path d="M0 0 C0.33 1.32 0.66 2.64 1 4 C0.34 4 -0.32 4 -1 4 C-1.3403125 4.86625 -1.3403125 4.86625 -1.6875 5.75 C-3.34401993 8.58974845 -5.39468706 10.01499967 -8 12 C-8.639375 12.639375 -9.27875 13.27875 -9.9375 13.9375 C-12.48675798 16.48675798 -15.20994409 18.71722698 -18 21 C-18.66 20.67 -19.32 20.34 -20 20 C-13.4 13.4 -6.8 6.8 0 0 Z " fill="#F0C3BD" transform="translate(187,221)"/>
<path d="M0 0 C2.97 0.33 5.94 0.66 9 1 C9.5699776 5.8448096 7.96022426 8.23971513 5 12 C2.25 14.375 2.25 14.375 0 16 C0 15.34 0 14.68 0 14 C-5.28 14 -10.56 14 -16 14 C-16 13.67 -16 13.34 -16 13 C-9.73 12.67 -3.46 12.34 3 12 C3.66 10.02 4.32 8.04 5 6 C5.33 5.01 5.66 4.02 6 3 C4.02 3 2.04 3 0 3 C0 2.01 0 1.02 0 0 Z " fill="#FDE6E1" transform="translate(389,206)"/>
<path d="M0 0 C0.33 0.66 0.66 1.32 1 2 C-2.85286104 9.56811989 -2.85286104 9.56811989 -6 12 C-6.66 12 -7.32 12 -8 12 C-8 12.66 -8 13.32 -8 14 C-8.66 14 -9.32 14 -10 14 C-10 14.66 -10 15.32 -10 16 C-10.66 16 -11.32 16 -12 16 C-12.33 16.99 -12.66 17.98 -13 19 C-13.66 19 -14.32 19 -15 19 C-15 17.68 -15 16.36 -15 15 C-14.34 15 -13.68 15 -13 15 C-13 14.34 -13 13.68 -13 13 C-12.34 13 -11.68 13 -11 13 C-10.7525 12.360625 -10.505 11.72125 -10.25 11.0625 C-9 9 -9 9 -6.875 8.25 C-5.946875 8.12625 -5.946875 8.12625 -5 8 C-4.67 6.35 -4.34 4.7 -4 3 C-3.34 3 -2.68 3 -2 3 C-2 2.34 -2 1.68 -2 1 C-1.34 0.67 -0.68 0.34 0 0 Z " fill="#F3B5B3" transform="translate(412,209)"/>
<path d="M0 0 C-1.37610086 4.12830258 -3.242333 4.88204223 -7 7 C-11.17561018 8.50674609 -14.67990422 9.33442958 -19 8 C-17.44038638 7.03697644 -15.87716775 6.07978996 -14.3125 5.125 C-13.44238281 4.59132812 -12.57226562 4.05765625 -11.67578125 3.5078125 C-7.5290698 1.17112547 -4.81269897 0 0 0 Z " fill="#F7DCD7" transform="translate(286,197)"/>
<path d="M0 0 C1.32 0.33 2.64 0.66 4 1 C-4.81924667 7.88168491 -13.84746403 10.87773495 -25.0390625 9.51953125 C-27 9 -27 9 -29 7 C-23.39 7.33 -17.78 7.66 -12 8 C-12 7.34 -12 6.68 -12 6 C-10.73160474 5.49384702 -9.46016898 4.99530901 -8.1875 4.5 C-7.12595703 4.08234375 -7.12595703 4.08234375 -6.04296875 3.65625 C-4 3 -4 3 -1 3 C-0.67 2.01 -0.34 1.02 0 0 Z " fill="#EA9A96" transform="translate(275,246)"/>
<path d="M0 0 C1.22589844 0.01353516 1.22589844 0.01353516 2.4765625 0.02734375 C3.41628906 0.04474609 3.41628906 0.04474609 4.375 0.0625 C4.375 0.3925 4.375 0.7225 4.375 1.0625 C2.065 1.3925 -0.245 1.7225 -2.625 2.0625 C-1.305 2.7225 0.015 3.3825 1.375 4.0625 C-0.2646875 4.4646875 -0.2646875 4.4646875 -1.9375 4.875 C-5.30003079 5.9578489 -6.48585593 6.44799058 -8.625 9.0625 C-8.955 9.0625 -9.285 9.0625 -9.625 9.0625 C-9.955 11.7025 -10.285 14.3425 -10.625 17.0625 C-12.625 14.0625 -12.625 14.0625 -12.5625 10.75 C-11.4000281 6.17761053 -9.89018922 4.40732798 -6.625 1.0625 C-4.21954362 -0.14022819 -2.67503047 -0.03821472 0 0 Z " fill="#F1B3AF" transform="translate(432.625,197.9375)"/>
<path d="M0 0 C1.43655854 -0.08131463 2.8744483 -0.13933559 4.3125 -0.1875 C5.51326172 -0.23970703 5.51326172 -0.23970703 6.73828125 -0.29296875 C9 0 9 0 10.78125 1.09375 C12.60763905 3.9504098 12.28691682 6.34046705 12.1875 9.6875 C12.16042969 10.86699219 12.13335937 12.04648438 12.10546875 13.26171875 C12.07066406 14.16535156 12.03585937 15.06898438 12 16 C11.01 16 10.02 16 9 16 C9 12.37 9 8.74 9 5 C5.7 4.01 2.4 3.02 -1 2 C-0.67 1.34 -0.34 0.68 0 0 Z " fill="#F9CDC9" transform="translate(430,199)"/>
<path d="M0 0 C7.27272727 -0.48484848 7.27272727 -0.48484848 10.4375 1.625 C12.28765829 4.4372406 12.69750921 6.67260127 13 10 C11.5 8.75 11.5 8.75 10 7 C10 5.68 10 4.36 10 3 C9.01 3 8.02 3 7 3 C7 4.32 7 5.64 7 7 C5.02 7 3.04 7 1 7 C1.33 5.68 1.66 4.36 2 3 C1.01 2.67 0.02 2.34 -1 2 C-0.67 1.34 -0.34 0.68 0 0 Z " fill="#E5AFAB" transform="translate(317,280)"/>
<path d="M0 0 C2.125 0.375 2.125 0.375 4 1 C4.33 2.65 4.66 4.3 5 6 C3.35 6.66 1.7 7.32 0 8 C-0.33 12.95 -0.66 17.9 -1 23 C-1.33 23 -1.66 23 -2 23 C-2.05789006 19.54173658 -2.09355821 16.08359707 -2.125 12.625 C-2.14175781 11.64015625 -2.15851563 10.6553125 -2.17578125 9.640625 C-2.18222656 8.69960938 -2.18867188 7.75859375 -2.1953125 6.7890625 C-2.20578613 5.91975098 -2.21625977 5.05043945 -2.22705078 4.15478516 C-2 2 -2 2 0 0 Z " fill="#E89E9A" transform="translate(257,274)"/>
<path d="M0 0 C0 3 0 3 -1.27734375 4.5 C-1.82519531 4.995 -2.37304688 5.49 -2.9375 6 C-5.27535925 8.12231195 -5.96275884 8.88827651 -7 12 C-7.99 12.66 -8.98 13.32 -10 14 C-10.13277344 14.66515625 -10.26554688 15.3303125 -10.40234375 16.015625 C-10.59957031 16.67046875 -10.79679688 17.3253125 -11 18 C-13.06640625 19.046875 -13.06640625 19.046875 -15.5625 19.75 C-16.80193359 20.11351562 -16.80193359 20.11351562 -18.06640625 20.484375 C-18.70449219 20.65453125 -19.34257812 20.8246875 -20 21 C-15.76183463 15.93376232 -11.32591037 11.19961931 -6.625 6.5625 C-5.98433594 5.92634766 -5.34367188 5.29019531 -4.68359375 4.63476562 C-3.12469121 3.08749668 -1.56348584 1.54263508 0 0 Z " fill="#F0C4BF" transform="translate(166,242)"/>
<path d="M0 0 C1.65 0.33 3.3 0.66 5 1 C1.13082319 5.72899388 -3.00302036 10.11269322 -7.3125 14.4375 C-7.85229492 14.98180664 -8.39208984 15.52611328 -8.94824219 16.08691406 C-12.87627307 20 -12.87627307 20 -14 20 C-14 18.35 -14 16.7 -14 15 C-13.01 15 -12.02 15 -11 15 C-11 14.34 -11 13.68 -11 13 C-9.33720673 11.9935725 -7.67016516 10.99414593 -6 10 C-5.34 9.01 -4.68 8.02 -4 7 C-4.66 6.67 -5.32 6.34 -6 6 C-4.35 6 -2.7 6 -1 6 C-1 5.34 -1 4.68 -1 4 C-0.34 4 0.32 4 1 4 C0.67 2.68 0.34 1.36 0 0 Z " fill="#E89B96" transform="translate(145,212)"/>
<path d="M0 0 C0 3.23287009 -0.31228183 5.15598225 -2.375 7.6875 C-4 9 -4 9 -7 9 C-7.12375 9.61875 -7.2475 10.2375 -7.375 10.875 C-8 13 -8 13 -10 15 C-10.99 15 -11.98 15 -13 15 C-13.33 16.32 -13.66 17.64 -14 19 C-15.32 18.67 -16.64 18.34 -18 18 C-12.06 12.06 -6.12 6.12 0 0 Z " fill="#F2CBC8" transform="translate(325,209)"/>
<path d="M0 0 C0.33 0 0.66 0 1 0 C1.33 2.64 1.66 5.28 2 8 C2.66 8 3.32 8 4 8 C3 11 3 11 0 14 C5.28 14 10.56 14 16 14 C16 14.33 16 14.66 16 15 C10.39 15 4.78 15 -1 15 C-1.33 14.01 -1.66 13.02 -2 12 C-6.62 12 -11.24 12 -16 12 C-16 11.67 -16 11.34 -16 11 C-10.72 11 -5.44 11 0 11 C0 7.37 0 3.74 0 0 Z " fill="#DD9B95" transform="translate(367,198)"/>
<path d="M0 0 C1.20462891 -0.02416992 1.20462891 -0.02416992 2.43359375 -0.04882812 C7.18293194 -0.05274027 10.21657526 0.31393122 14.125 3.3125 C13.795 3.9725 13.465 4.6325 13.125 5.3125 C12.17625 4.9825 11.2275 4.6525 10.25 4.3125 C6.32318407 3.17808651 2.69769106 3.21530955 -1.36328125 3.30859375 C-4.93619268 3.31415038 -8.34385765 2.8356322 -11.875 2.3125 C-7.82801203 -0.38549198 -4.74798435 -0.01887116 0 0 Z " fill="#F5CBC5" transform="translate(297.875,194.6875)"/>
<path d="M0 0 C0 2.31 0 4.62 0 7 C1.98 7.66 3.96 8.32 6 9 C5.67 9.99 5.34 10.98 5 12 C3.68528432 11.71848913 2.37324233 11.42446661 1.0625 11.125 C0.33160156 10.96257812 -0.39929688 10.80015625 -1.15234375 10.6328125 C-3 10 -3 10 -4 8 C-4.25 5 -4.25 5 -4 2 C-1 0 -1 0 0 0 Z " fill="#FEEAE6" transform="translate(202,285)"/>
<path d="M0 0 C1.98 0.66 3.96 1.32 6 2 C6 5.96 6 9.92 6 14 C4.68 14 3.36 14 2 14 C1.93941406 13.24074219 1.87882813 12.48148437 1.81640625 11.69921875 C1.73261719 10.70535156 1.64882812 9.71148437 1.5625 8.6875 C1.48128906 7.70136719 1.40007812 6.71523438 1.31640625 5.69921875 C1.08187441 2.90624401 1.08187441 2.90624401 0 0 Z " fill="#FEF0F0" transform="translate(180,282)"/>
<path d="M0 0 C0.80308594 -0.02449219 1.60617187 -0.04898438 2.43359375 -0.07421875 C6.51650156 -0.09439787 8.60114106 0.04435657 12.1328125 2.2734375 C15.85524056 6.20023416 15.20906258 9.16311987 15.125 14.375 C14.795 14.375 14.465 14.375 14.125 14.375 C14.08375 13.488125 14.0425 12.60125 14 11.6875 C12.80493594 7.16332893 10.78407245 6.17769379 7.125 3.375 C7.125 2.715 7.125 2.055 7.125 1.375 C-2.28 1.87 -2.28 1.87 -11.875 2.375 C-7.83342649 -0.31938234 -4.74396317 0.00754207 0 0 Z " fill="#F3B7B3" transform="translate(398.875,194.625)"/>
<path d="M0 0 C7.75 -0.125 7.75 -0.125 10 1 C10 1.66 10 2.32 10 3 C9.01 3.66 8.02 4.32 7 5 C7 5.99 7 6.98 7 8 C5.02 8 3.04 8 1 8 C1.33 6.02 1.66 4.04 2 2 C1.34 2 0.68 2 0 2 C0 1.34 0 0.68 0 0 Z " fill="#F1C5BF" transform="translate(234,280)"/>
<path d="M0 0 C0.99 0.33 1.98 0.66 3 1 C-1.95 5.95 -6.9 10.9 -12 16 C-13 14 -13 14 -12.1875 11.5 C-10.26316966 7.44877822 -8.07233378 6.5003335 -4 5 C-4 4.01 -4 3.02 -4 2 C-2.68 2 -1.36 2 0 2 C0 1.34 0 0.68 0 0 Z " fill="#E4B9B7" transform="translate(317,235)"/>
<path d="M0 0 C0.52207031 0.32226562 1.04414063 0.64453125 1.58203125 0.9765625 C1.58203125 1.6365625 1.58203125 2.2965625 1.58203125 2.9765625 C-0.89296875 2.4815625 -0.89296875 2.4815625 -3.41796875 1.9765625 C-3.41796875 1.3165625 -3.41796875 0.6565625 -3.41796875 -0.0234375 C-7.04796875 -0.0234375 -10.67796875 -0.0234375 -14.41796875 -0.0234375 C-14.41796875 0.6365625 -14.41796875 1.2965625 -14.41796875 1.9765625 C-15.99578125 2.4096875 -15.99578125 2.4096875 -17.60546875 2.8515625 C-20.64615586 3.74881443 -23.50509219 4.74079669 -26.41796875 5.9765625 C-26.41796875 4.3265625 -26.41796875 2.6765625 -26.41796875 0.9765625 C-26.08796875 1.6365625 -25.75796875 2.2965625 -25.41796875 2.9765625 C-24.68707031 2.5434375 -24.68707031 2.5434375 -23.94140625 2.1015625 C-16.87190588 -1.60028496 -7.57133607 -3.2046689 0 0 Z " fill="#EFAFAC" transform="translate(244.41796875,196.0234375)"/>
<path d="M0 0 C1 1 1 1 1.25 4.875 C1.2225573 8.70325694 1.2225573 8.70325694 -0.5 11 C-0.995 11.33 -1.49 11.66 -2 12 C-2 8.58900832 -1.50854594 5.36911686 -1 2 C-6.54958261 2.34684891 -9.77340938 3.81920274 -14.30078125 7.0390625 C-14.86152344 7.35617188 -15.42226562 7.67328125 -16 8 C-16.66 7.67 -17.32 7.34 -18 7 C-16.625 5.5 -16.625 5.5 -15 4 C-14.34 4 -13.68 4 -13 4 C-12.67 3.01 -12.34 2.02 -12 1 C-7.94726192 0.01751804 -4.16464926 -0.16017882 0 0 Z " fill="#E6AAA6" transform="translate(231,208)"/>
<path d="M0 0 C0.66 0 1.32 0 2 0 C2 2.31 2 4.62 2 7 C3.2375 6.690625 4.475 6.38125 5.75 6.0625 C8.5 5.375 11.25 4.6875 14 4 C14 4.66 14 5.32 14 6 C11.41894815 8.25842037 9.38620118 9.95455078 5.85546875 10.0703125 C0.42446319 9.42446319 0.42446319 9.42446319 -1 8 C-1.23529412 2.47058824 -1.23529412 2.47058824 0 0 Z " fill="#FDEAE7" transform="translate(354,235)"/>
<path d="M0 0 C3.31972305 3.31972305 3.43121982 3.71631179 3.4375 8.125 C3.27603153 14.52425024 1.60381819 20.39618181 -3 25 C-3.33 23.68 -3.66 22.36 -4 21 C-3.01 21 -2.02 21 -1 21 C-1 19.02 -1 17.04 -1 15 C-0.34 15 0.32 15 1 15 C0.67 10.05 0.34 5.1 0 0 Z " fill="#ECB8B3" transform="translate(246,199)"/>
<path d="M0 0 C1.37478516 0.01740234 1.37478516 0.01740234 2.77734375 0.03515625 C3.69644531 0.04417969 4.61554688 0.05320313 5.5625 0.0625 C6.27277344 0.07410156 6.98304687 0.08570313 7.71484375 0.09765625 C8.04484375 0.75765625 8.37484375 1.41765625 8.71484375 2.09765625 C7.32265625 2.00484375 7.32265625 2.00484375 5.90234375 1.91015625 C2.81349792 1.81687849 2.81349792 1.81687849 1.02734375 3.25390625 C-0.80478107 5.8276054 -0.58285833 7.66276411 -0.47265625 10.78515625 C-0.44558594 11.77902344 -0.41851562 12.77289063 -0.390625 13.796875 C-0.33841797 14.93576172 -0.33841797 14.93576172 -0.28515625 16.09765625 C-2.69375863 13.68905387 -3.23450776 12.03018441 -3.41796875 8.65234375 C-3.41539063 7.76804688 -3.4128125 6.88375 -3.41015625 5.97265625 C-3.41273437 5.08320313 -3.4153125 4.19375 -3.41796875 3.27734375 C-3.23438982 0.2644895 -3.02168645 0.1291319 0 0 Z " fill="#E5ADA9" transform="translate(98.28515625,206.90234375)"/>
<path d="M0 0 C0 0.66 0 1.32 0 2 C-1.65 2.33 -3.3 2.66 -5 3 C-5 3.66 -5 4.32 -5 5 C-5.99 5.66 -6.98 6.32 -8 7 C-8.99 8.485 -8.99 8.485 -10 10 C-10 9.34 -10 8.68 -10 8 C-11.98 8.33 -13.96 8.66 -16 9 C-11.46480558 4.05251518 -7.03802058 0 0 0 Z " fill="#F8C9C5" transform="translate(387,197)"/>
<path d="M0 0 C0.33 1.32 0.66 2.64 1 4 C0.01 4.33 -0.98 4.66 -2 5 C-2.33 5.99 -2.66 6.98 -3 8 C-4.875 10.1875 -4.875 10.1875 -7 12 C-7.99 12 -8.98 12 -10 12 C-10.33 13.32 -10.66 14.64 -11 16 C-12.32 15.67 -13.64 15.34 -15 15 C-10.05 10.05 -5.1 5.1 0 0 Z " fill="#E8AAA2" transform="translate(159,216)"/>
<path d="M0 0 C1.48556344 2.97112689 0.62945767 5.49527627 0.15625 8.7109375 C-0.00662842 11.09710639 0.17142877 12.76088488 1 15 C1.66 15.33 2.32 15.66 3 16 C3.625 18.5625 3.625 18.5625 4 21 C0.98425729 19.96008872 0.02008949 19.03085171 -1.75 16.3125 C-3.69278011 11.1641327 -3.70567862 7.61718016 -1.5 2.5625 C-1.005 1.716875 -0.51 0.87125 0 0 Z " fill="#EA9C9A" transform="translate(59,230)"/>
<path d="M0 0 C1.32 0 2.64 0 4 0 C3.71125 0.556875 3.4225 1.11375 3.125 1.6875 C1.9586747 4.08494645 0.9660119 6.51596939 0 9 C1.65 9 3.3 9 5 9 C5 9.66 5 10.32 5 11 C2.69 11 0.38 11 -2 11 C-2.84454356 7.62182575 -3.10844919 5.32534757 -2 2 C-1.34 2 -0.68 2 0 2 C0 1.34 0 0.68 0 0 Z " fill="#F3C1BC" transform="translate(126,232)"/>
<path d="M0 0 C2 2 2 2 2.1875 5.4375 C2 9 2 9 1 12 C0.34 12 -0.32 12 -1 12 C-1.66 13.32 -2.32 14.64 -3 16 C-3.66 16 -4.32 16 -5 16 C-5 15.34 -5 14.68 -5 14 C-7.64 14 -10.28 14 -13 14 C-13 13.67 -13 13.34 -13 13 C-11.1746875 12.7834375 -11.1746875 12.7834375 -9.3125 12.5625 C-6.17329623 12.17219047 -3.0924866 11.67648144 0 11 C-0.185625 10.113125 -0.37125 9.22625 -0.5625 8.3125 C-0.98042484 5.14821189 -0.80777742 3.05160358 0 0 Z " fill="#EBBEBA" transform="translate(442,204)"/>
<path d="M0 0 C0 3.21378204 -0.3983451 3.87506559 -2 6.5 C-4.68172579 11.56128529 -4.37025446 16.40504378 -4 22 C-6.70079201 19.65835586 -6.97759861 19.1624101 -7.5 15.375 C-7.30263882 9.45416456 -4.12359489 4.12359489 0 0 Z " fill="#E7A09C" transform="translate(113,229)"/>
<path d="M0 0 C4.875 1.75 4.875 1.75 6 4 C6.1875 7.5 6.1875 7.5 6 11 C5.34 11.66 4.68 12.32 4 13 C1.95301586 10.95301586 2.29954307 6.69588759 2 4 C-0.64 3.67 -3.28 3.34 -6 3 C-4.125 1.9375 -4.125 1.9375 -2 1 C-1.34 1.33 -0.68 1.66 0 2 C0 1.34 0 0.68 0 0 Z " fill="#CC9997" transform="translate(434,202)"/>
<path d="M0 0 C0.33 0.99 0.66 1.98 1 3 C-1.59746823 7.77934155 -4.65694279 10.85821393 -9 14 C-9.99 14 -10.98 14 -12 14 C-12 13.34 -12 12.68 -12 12 C-11.01 12 -10.02 12 -9 12 C-9 11.01 -9 10.02 -9 9 C-8.01 9 -7.02 9 -6 9 C-6 8.01 -6 7.02 -6 6 C-5.01 5.67 -4.02 5.34 -3 5 C-2.67 4.01 -2.34 3.02 -2 2 C-1.34 2 -0.68 2 0 2 C0 1.34 0 0.68 0 0 Z " fill="#EBB0AD" transform="translate(98,239)"/>
<path d="M0 0 C0 0.66 0 1.32 0 2 C-0.66 2 -1.32 2 -2 2 C-2 2.66 -2 3.32 -2 4 C-3.375 5.625 -3.375 5.625 -5 7 C-5.66 7 -6.32 7 -7 7 C-7 7.66 -7 8.32 -7 9 C-7.66 9 -8.32 9 -9 9 C-9 9.66 -9 10.32 -9 11 C-11 12.625 -11 12.625 -13 14 C-13 12.68 -13 11.36 -13 10 C-12.01 10 -11.02 10 -10 10 C-9.9175 9.21625 -9.835 8.4325 -9.75 7.625 C-9 5 -9 5 -6.9375 3.6875 C-6.298125 3.460625 -5.65875 3.23375 -5 3 C-5 2.34 -5 1.68 -5 1 C-3 0 -3 0 0 0 Z " fill="#F5B6B4" transform="translate(397,228)"/>
<path d="M0 0 C2.14576637 -0.02685938 4.29162645 -0.04633088 6.4375 -0.0625 C7.63246094 -0.07410156 8.82742187 -0.08570313 10.05859375 -0.09765625 C13 0 13 0 14 1 C14.04063832 2.66617115 14.042721 4.33388095 14 6 C13.34 5.67 12.68 5.34 12 5 C12 4.01 12 3.02 12 2 C8.37 2 4.74 2 1 2 C1 4.64 1 7.28 1 10 C0.67 10 0.34 10 0 10 C0 6.7 0 3.4 0 0 Z " fill="#F3C8C3" transform="translate(204,196)"/>
<path d="M0 0 C0.99 0 1.98 0 3 0 C1.46356148 3.68069887 -0.78150945 5.98775204 -3.625 8.75 C-4.85089844 9.94882813 -4.85089844 9.94882813 -6.1015625 11.171875 C-6.72804687 11.77515625 -7.35453125 12.3784375 -8 13 C-9.24546405 10.50907189 -8.7767578 9.58919267 -8 7 C-6.68 7 -5.36 7 -4 7 C-4 5.68 -4 4.36 -4 3 C-3.01 3 -2.02 3 -1 3 C-0.67 2.01 -0.34 1.02 0 0 Z " fill="#F88C89" transform="translate(184,209)"/>
<path d="M0 0 C0.66 0 1.32 0 2 0 C1.67 0.99 1.34 1.98 1 3 C0.34 3 -0.32 3 -1 3 C-2.09626254 5.04635673 -2.95761379 6.76687585 -3.375 9.0625 C-4.25644093 11.79496689 -5.50971869 12.648133 -8 14 C-10.13671875 13.57421875 -10.13671875 13.57421875 -12 13 C-11.36191406 12.37351563 -10.72382812 11.74703125 -10.06640625 11.1015625 C-9.24011719 10.28429687 -8.41382812 9.46703125 -7.5625 8.625 C-6.73878906 7.81289062 -5.91507812 7.00078125 -5.06640625 6.1640625 C-2.96565328 4.17651485 -2.96565328 4.17651485 -2 2 C-1.34 2 -0.68 2 0 2 C0 1.34 0 0.68 0 0 Z " fill="#F3BCB9" transform="translate(132,209)"/>
<path d="M0 0 C0.66 0 1.32 0 2 0 C2.33 5.94 2.66 11.88 3 18 C2.01 18 1.02 18 0 18 C0 12.06 0 6.12 0 0 Z " fill="#FEF6F6" transform="translate(290,277)"/>
<path d="M0 0 C0.66 0.33 1.32 0.66 2 1 C1.67 1.66 1.34 2.32 1 3 C0.34 3 -0.32 3 -1 3 C-1 3.66 -1 4.32 -1 5 C-1.66 5 -2.32 5 -3 5 C-3.2475 5.78375 -3.495 6.5675 -3.75 7.375 C-5.15389099 10.32317108 -6.00675737 10.9024777 -9 12 C-8.34 10.68 -7.68 9.36 -7 8 C-6.34 8 -5.68 8 -5 8 C-5.103125 7.236875 -5.20625 6.47375 -5.3125 5.6875 C-5.209375 4.800625 -5.10625 3.91375 -5 3 C-2.625 1.125 -2.625 1.125 0 0 Z M-12 12 C-11.01 12.33 -10.02 12.66 -9 13 C-9.66 13.66 -10.32 14.32 -11 15 C-11.66 14.34 -12.32 13.68 -13 13 C-12.67 12.67 -12.34 12.34 -12 12 Z " fill="#FDF4F1" transform="translate(265,206)"/>
<path d="M0 0 C-3.3621637 3.65882521 -6.36050852 6.14420341 -11 8 C-11.66 7.67 -12.32 7.34 -13 7 C-4.78021978 -1.59340659 -4.78021978 -1.59340659 0 0 Z " fill="#FEF0EE" transform="translate(182,199)"/>
<path d="M0 0 C0.33 0.66 0.66 1.32 1 2 C-1.7798899 6.28566359 -4.36848407 7.89846089 -9 9.6171875 C-11.30942057 10.05922503 -12.78436006 9.72206123 -15 9 C-14.25234375 8.60167969 -13.5046875 8.20335937 -12.734375 7.79296875 C-11.74953125 7.26316406 -10.7646875 6.73335937 -9.75 6.1875 C-8.77546875 5.66542969 -7.8009375 5.14335937 -6.796875 4.60546875 C-4.36644588 3.21034812 -2.19212301 1.73804039 0 0 Z " fill="#E9B2AF" transform="translate(218,230)"/>
<path d="M0 0 C0.99 0.495 0.99 0.495 2 1 C3.5195764 1.15123831 5.04472502 1.24881693 6.5703125 1.31640625 C7.91416016 1.37924805 7.91416016 1.37924805 9.28515625 1.44335938 C10.22230469 1.48267578 11.15945313 1.52199219 12.125 1.5625 C13.54232422 1.62727539 13.54232422 1.62727539 14.98828125 1.69335938 C17.32537092 1.79959072 19.6625683 1.90163176 22 2 C18.55549263 4.29633824 16.06187717 4.54016485 12 5 C12 4.34 12 3.68 12 3 C11.07767578 3.12568359 11.07767578 3.12568359 10.13671875 3.25390625 C9.32847656 3.35574219 8.52023437 3.45757812 7.6875 3.5625 C6.88699219 3.66691406 6.08648437 3.77132812 5.26171875 3.87890625 C3 4 3 4 0 3 C0 2.01 0 1.02 0 0 Z " fill="#FCEDED" transform="translate(270,217)"/>
<path d="M0 0 C2 2 2 2 2.1953125 4.1640625 C2.17210937 4.97617187 2.14890625 5.78828125 2.125 6.625 C2.10695312 7.44226563 2.08890625 8.25953125 2.0703125 9.1015625 C2.03550781 10.04128906 2.03550781 10.04128906 2 11 C1.67 10.34 1.34 9.68 1 9 C-3.455 9.495 -3.455 9.495 -8 10 C-8.33 9.01 -8.66 8.02 -9 7 C-5.7 7 -2.4 7 1 7 C0.67 4.69 0.34 2.38 0 0 Z " fill="#DC8A8A" transform="translate(244,283)"/>
<path d="M0 0 C0.99 0 1.98 0 3 0 C3 3.96 3 7.92 3 12 C2.01 12 1.02 12 0 12 C0 8.04 0 4.08 0 0 Z " fill="#FEF3F1" transform="translate(298,284)"/>
<path d="M0 0 C0.8971875 0.309375 0.8971875 0.309375 1.8125 0.625 C2.1425 2.275 2.4725 3.925 2.8125 5.625 C1.4925 5.955 0.1725 6.285 -1.1875 6.625 C-0.8575 5.305 -0.5275 3.985 -0.1875 2.625 C-1.5075 2.625 -2.8275 2.625 -4.1875 2.625 C-4.5175 3.945 -4.8475 5.265 -5.1875 6.625 C-5.8475 6.295 -6.5075 5.965 -7.1875 5.625 C-5.69046729 2.17030914 -4.27938051 -0.73360809 0 0 Z " fill="#E79E99" transform="translate(311.1875,274.375)"/>
<path d="M0 0 C1.98 0 3.96 0 6 0 C2.6189962 4.13621084 -0.66590534 7.81316569 -5 11 C-4.34 9.02 -3.68 7.04 -3 5 C-2.01 5 -1.02 5 0 5 C0 3.35 0 1.7 0 0 Z " fill="#E9B9B2" transform="translate(325,224)"/>
<path d="M0 0 C2.97 0.495 2.97 0.495 6 1 C6 1.66 6 2.32 6 3 C12.36559573 2.50873071 18.69264693 2.00344253 25 1 C19.40608931 4.72927379 12.50762359 5.60096832 5.9375 4.3125 C2.41720052 3.47857734 2.14856118 3.22284177 0 0 Z " fill="#E48E89" transform="translate(184,251)"/>
<path d="M0 0 C0.33 0.66 0.66 1.32 1 2 C0.67 2.845625 0.34 3.69125 0 4.5625 C-1.28027297 8.96343834 -1.06106763 12.56204254 0 17 C1.38518644 19.49807812 1.38518644 19.49807812 3 21 C-0.16115776 19.63016497 -0.9927092 19.0109362 -3 16 C-3.59895032 10.97504021 -3.66912695 6.42189477 -1.5 1.8125 C-1.005 1.214375 -0.51 0.61625 0 0 Z " fill="#E9A8A2" transform="translate(342,232)"/>
<path d="M0 0 C0.33 0.66 0.66 1.32 1 2 C0.0625 4.125 0.0625 4.125 -1 6 C-1.99 6 -2.98 6 -4 6 C-4 6.66 -4 7.32 -4 8 C-6.64 8.33 -9.28 8.66 -12 9 C-8.11327187 5.81994972 -4.10047867 2.89445553 0 0 Z " fill="#EFB3B0" transform="translate(143,232)"/>
<path d="M0 0 C1.32 0.66 2.64 1.32 4 2 C2.62032992 4.75934016 0.9457655 5.17538641 -1.8125 6.5 C-2.68519531 6.9228125 -3.55789063 7.345625 -4.45703125 7.78125 C-5.29621094 8.1834375 -6.13539063 8.585625 -7 9 C-8.33467651 9.66397352 -9.66853406 10.32961155 -11 11 C-10.0919838 9.86800647 -9.17316174 8.74467637 -8.25 7.625 C-7.73953125 6.99851563 -7.2290625 6.37203125 -6.703125 5.7265625 C-4.91259898 3.91139622 -3.27385637 3.09871211 -1 2 C-0.67 1.34 -0.34 0.68 0 0 Z " fill="#F2D1CC" transform="translate(379,228)"/>
<path d="M0 0 C1.21236328 0.04060547 1.21236328 0.04060547 2.44921875 0.08203125 C3.06410156 0.11683594 3.67898438 0.15164063 4.3125 0.1875 C4.3125 0.5175 4.3125 0.8475 4.3125 1.1875 C1.6725 1.1875 -0.9675 1.1875 -3.6875 1.1875 C-4.0175 3.8275 -4.3475 6.4675 -4.6875 9.1875 C-5.6775 8.8575 -6.6675 8.5275 -7.6875 8.1875 C-8.05266854 3.68375468 -8.05266854 3.68375468 -6.46875 1.53125 C-4.16764554 -0.20467091 -2.84767456 -0.12381194 0 0 Z " fill="#F1B1AF" transform="translate(270.6875,279.8125)"/>
<path d="M0 0 C1.9375 0.6875 1.9375 0.6875 4 2 C4.625 4.5625 4.625 4.5625 5 7 C5.66 7.33 6.32 7.66 7 8 C7 9.32 7 10.64 7 12 C6.01 12 5.02 12 4 12 C3.3291288 10.3767313 2.66342971 8.75132422 2 7.125 C1.62875 6.22007812 1.2575 5.31515625 0.875 4.3828125 C0 2 0 2 0 0 Z " fill="#FCF4F4" transform="translate(216,283)"/>
<path d="M0 0 C3.29164829 -0.02895225 6.58326399 -0.0467823 9.875 -0.0625 C10.81214844 -0.07087891 11.74929687 -0.07925781 12.71484375 -0.08789062 C14.05869141 -0.09272461 14.05869141 -0.09272461 15.4296875 -0.09765625 C16.67081299 -0.10551147 16.67081299 -0.10551147 17.93701172 -0.11352539 C20 0 20 0 22 1 C22 1.66 22 2.32 22 3 C20.906875 2.814375 19.81375 2.62875 18.6875 2.4375 C15.06375867 1.7421932 15.06375867 1.7421932 12 3 C11.34 2.67 10.68 2.34 10 2 C8.29636178 1.77377919 6.58671299 1.59111527 4.875 1.4375 C3.96492187 1.35371094 3.05484375 1.26992188 2.1171875 1.18359375 C1.41851562 1.12300781 0.71984375 1.06242187 0 1 C0 0.67 0 0.34 0 0 Z " fill="#EC9C97" transform="translate(173,280)"/>
<path d="M0 0 C1.32 0.33 2.64 0.66 4 1 C2.90536178 2.17561146 1.79892814 3.3402489 0.6875 4.5 C0.07261719 5.1496875 -0.54226562 5.799375 -1.17578125 6.46875 C-3 8 -3 8 -6 8 C-5.67 6.35 -5.34 4.7 -5 3 C-3.35 2.67 -1.7 2.34 0 2 C0 1.34 0 0.68 0 0 Z " fill="#EFC3C0" transform="translate(161,264)"/>
<path d="M0 0 C4.75 0.875 4.75 0.875 7 2 C9.37123246 2.23029956 11.74741943 2.41119942 14.125 2.5625 C15.40632813 2.64628906 16.68765625 2.73007813 18.0078125 2.81640625 C19.48894531 2.90728516 19.48894531 2.90728516 21 3 C16.43431733 5.48587061 12.6790136 5.67083539 7.58203125 4.39453125 C5.32110982 3.68642072 3.14657433 3.00419143 1 2 C0.67 1.34 0.34 0.68 0 0 Z " fill="#E28888" transform="translate(63,251)"/>
<path d="M0 0 C0.6875 1.8125 0.6875 1.8125 1 4 C-0.3125 5.75 -0.3125 5.75 -2 7 C-2.66 7 -3.32 7 -4 7 C-4 7.66 -4 8.32 -4 9 C-5.98 9.66 -7.96 10.32 -10 11 C-6.79239749 7.19364503 -3.59253891 3.45436433 0 0 Z " fill="#F5C9C5" transform="translate(144,198)"/>
<path d="M0 0 C4.15414253 1.22736029 6.43688534 2.327664 10 5 C5.38 5 0.76 5 -4 5 C-2.68 3.35 -1.36 1.7 0 0 Z " fill="#F9E3DC" transform="translate(366,247)"/>
<path d="M0 0 C2.0625 0.4375 2.0625 0.4375 4 1 C3.01 2.485 3.01 2.485 2 4 C1.62152955 6.0179789 1.62152955 6.0179789 1.5 8.125 C1.335 9.40375 1.17 10.6825 1 12 C0.01 12.495 0.01 12.495 -1 13 C-1.02686553 11.02090602 -1.04633375 9.04171029 -1.0625 7.0625 C-1.07410156 5.96035156 -1.08570313 4.85820312 -1.09765625 3.72265625 C-1 1 -1 1 0 0 Z " fill="#F0A7A4" transform="translate(152,240)"/>
<path d="M0 0 C0.66 0 1.32 0 2 0 C2 0.99 2 1.98 2 3 C2.66 3.33 3.32 3.66 4 4 C2.68 4 1.36 4 0 4 C0 7.96 0 11.92 0 16 C-1.32 16.33 -2.64 16.66 -4 17 C-4.33 16.34 -4.66 15.68 -5 15 C-3.68 15 -2.36 15 -1 15 C-1.01160156 14.00097656 -1.02320313 13.00195312 -1.03515625 11.97265625 C-1.04869141 10.03712891 -1.04869141 10.03712891 -1.0625 8.0625 C-1.07410156 6.77472656 -1.08570313 5.48695313 -1.09765625 4.16015625 C-1 1 -1 1 0 0 Z " fill="#F2ADA8" transform="translate(302,281)"/>
<path d="M0 0 C0.33 0.66 0.66 1.32 1 2 C1.66 2 2.32 2 3 2 C3.33 2.66 3.66 3.32 4 4 C6.80478195 4.91485573 6.80478195 4.91485573 10.0625 5.625 C11.16722656 5.88539063 12.27195312 6.14578125 13.41015625 6.4140625 C14.26480469 6.60742188 15.11945313 6.80078125 16 7 C16 7.33 16 7.66 16 8 C10.23731665 8.1953452 5.89728529 8.29784696 1.1875 4.5625 C0 3 0 3 0 0 Z " fill="#FDECE6" transform="translate(341,246)"/>
<path d="M0 0 C0.33 0 0.66 0 1 0 C1.4375 2.125 1.4375 2.125 1 5 C-1.12689146 7.276147 -3.5023433 9.1458722 -6 11 C-6.33 9.68 -6.66 8.36 -7 7 C-6.01 7 -5.02 7 -4 7 C-4 6.01 -4 5.02 -4 4 C-3.01 4 -2.02 4 -1 4 C-0.67 2.68 -0.34 1.36 0 0 Z " fill="#F1C9C2" transform="translate(231,233)"/>
<path d="M0 0 C1.32 0.33 2.64 0.66 4 1 C3.34 4.63 2.68 8.26 2 12 C1.34 12 0.68 12 0 12 C0 8.04 0 4.08 0 0 Z " fill="#FEF5F4" transform="translate(174,282)"/>
<path d="M0 0 C2.97 0 5.94 0 9 0 C9.33 1.65 9.66 3.3 10 5 C8.68 5 7.36 5 6 5 C6 4.34 6 3.68 6 3 C4.35 3 2.7 3 1 3 C0.67 2.01 0.34 1.02 0 0 Z " fill="#FCE2DB" transform="translate(267,281)"/>
<path d="M0 0 C0.66 0.33 1.32 0.66 2 1 C-0.88329865 4.17162851 -3.32214211 5.80025501 -7.625 6.3125 C-8.40875 6.209375 -9.1925 6.10625 -10 6 C-10.66 5.01 -11.32 4.02 -12 3 C-10.82630859 2.80083984 -10.82630859 2.80083984 -9.62890625 2.59765625 C-8.61699219 2.42105469 -7.60507813 2.24445313 -6.5625 2.0625 C-5.55316406 1.88847656 -4.54382813 1.71445313 -3.50390625 1.53515625 C-1.0712562 1.25248903 -1.0712562 1.25248903 0 0 Z " fill="#FEECEB" transform="translate(208,238)"/>
<path d="M0 0 C0.66 0.33 1.32 0.66 2 1 C-1.96 4.96 -5.92 8.92 -10 13 C-10 8.61031544 -7.87194899 7.23094261 -5 4 C-5.66 3.67 -6.32 3.34 -7 3 C-5.5459375 2.5359375 -5.5459375 2.5359375 -4.0625 2.0625 C-1.15934208 1.30476658 -1.15934208 1.30476658 0 0 Z " fill="#E69492" transform="translate(211,216)"/>
<path d="M0 0 C0.66 0 1.32 0 2 0 C2 2.97 2 5.94 2 9 C5.63 9 9.26 9 13 9 C13 9.33 13 9.66 13 10 C8.71 10 4.42 10 0 10 C-1.231394 6.30581799 -0.64432764 3.7943739 0 0 Z " fill="#E69897" transform="translate(107,209)"/>
<path d="M0 0 C0.33 0.99 0.66 1.98 1 3 C0.34 3 -0.32 3 -1 3 C-1.20625 3.78375 -1.4125 4.5675 -1.625 5.375 C-3 8 -3 8 -6.125 9.3125 C-7.07375 9.539375 -8.0225 9.76625 -9 10 C-9 9.34 -9 8.68 -9 8 C-7.52999567 6.72599625 -6.05484219 5.4564992 -4.53515625 4.2421875 C-2.90933658 2.92663876 -1.43797979 1.51786755 0 0 Z " fill="#EFB6B4" transform="translate(294,240)"/>
<path d="M0 0 C0.33 1.32 0.66 2.64 1 4 C0.01 4.33 -0.98 4.66 -2 5 C-2.73323796 7.01508358 -2.73323796 7.01508358 -3 9 C-4.65 9.33 -6.3 9.66 -8 10 C-7.04367001 8.70684939 -6.08486149 7.41553147 -5.125 6.125 C-4.59132812 5.40570313 -4.05765625 4.68640625 -3.5078125 3.9453125 C-2 2 -2 2 0 0 Z " fill="#EFBBB8" transform="translate(227,220)"/>
<path d="M0 0 C1.32 0 2.64 0 4 0 C4 0.99 4 1.98 4 3 C3.34 3 2.68 3 2 3 C1.71125 3.639375 1.4225 4.27875 1.125 4.9375 C0 7 0 7 -2 8 C-2.125 5.125 -2.125 5.125 -2 2 C-1.34 1.34 -0.68 0.68 0 0 Z " fill="#F9AEA8" transform="translate(189,202)"/>
<path d="M0 0 C3 3 3 3 3.328125 5.19140625 C3.30234375 5.97386719 3.2765625 6.75632813 3.25 7.5625 C3.22679688 8.74005859 3.22679688 8.74005859 3.203125 9.94140625 C3 12 3 12 2 14 C1.34 14 0.68 14 0 14 C0 9.38 0 4.76 0 0 Z " fill="#E5A19E" transform="translate(83,225)"/>
<path d="M0 0 C1.65 0.33 3.3 0.66 5 1 C4.07038578 2.15224028 3.1309875 3.29659176 2.1875 4.4375 C1.40439453 5.39462891 1.40439453 5.39462891 0.60546875 6.37109375 C-1 8 -1 8 -4 9 C-4 8.34 -4 7.68 -4 7 C-4.66 6.67 -5.32 6.34 -6 6 C-4.35 6 -2.7 6 -1 6 C-1 5.34 -1 4.68 -1 4 C-0.34 4 0.32 4 1 4 C0.67 2.68 0.34 1.36 0 0 Z " fill="#F1B6AF" transform="translate(145,212)"/>
<path d="M0 0 C0.33 0 0.66 0 1 0 C1 2.64 1 5.28 1 8 C1.66 8 2.32 8 3 8 C3.33 6.02 3.66 4.04 4 2 C4.99 2 5.98 2 7 2 C7 3.32 7 4.64 7 6 C6.01 6 5.02 6 4 6 C4 6.99 4 7.98 4 9 C2.68 9 1.36 9 0 9 C-1.125 3.375 -1.125 3.375 0 0 Z " fill="#E1B1BD" transform="translate(427,205)"/>
<path d="M0 0 C0.9075 0.103125 1.815 0.20625 2.75 0.3125 C2.42 0.9725 2.09 1.6325 1.75 2.3125 C-0.8125 2.9375 -0.8125 2.9375 -3.25 3.3125 C-3.58 5.6225 -3.91 7.9325 -4.25 10.3125 C-5.24 10.3125 -6.23 10.3125 -7.25 10.3125 C-7.63434723 6.94946176 -7.3439434 5.47509435 -5.625 2.5 C-3.25 0.3125 -3.25 0.3125 0 0 Z " fill="#BB838A" transform="translate(431.25,201.6875)"/>
<path d="M0 0 C0.99 0.33 1.98 0.66 3 1 C2.69381595 4.67420866 2.24228216 5.78135513 -0.5625 8.3125 C-1.366875 8.869375 -2.17125 9.42625 -3 10 C-2.49287967 6.28111761 -1.88391785 3.26545761 0 0 Z " fill="#F4C9C2" transform="translate(153,203)"/>
<path d="M0 0 C3.63 0 7.26 0 11 0 C10.67 1.32 10.34 2.64 10 4 C10 3.34 10 2.68 10 2 C8.72125 2.185625 7.4425 2.37125 6.125 2.5625 C2.25 3.125 2.25 3.125 0 2 C0 1.34 0 0.68 0 0 Z " fill="#CB8987" transform="translate(318,290)"/>
<path d="M0 0 C0.33 0 0.66 0 1 0 C1 3.3 1 6.6 1 10 C-2.58779175 10.89694794 -5.34618837 11.08304117 -9 11 C-9.33 10.34 -9.66 9.68 -10 9 C-6.7 8.67 -3.4 8.34 0 8 C0 5.36 0 2.72 0 0 Z " fill="#FEE7E1" transform="translate(150,243)"/>
<path d="M0 0 C0.66 0.33 1.32 0.66 2 1 C2.08167446 2.41569064 2.13949698 3.83276805 2.1875 5.25 C2.22230469 6.03890625 2.25710938 6.8278125 2.29296875 7.640625 C2 10 2 10 -1 14 C-0.67 9.38 -0.34 4.76 0 0 Z " fill="#F0A59D" transform="translate(312,200)"/>
<path d="M0 0 C6.52396607 0.25786427 10.87818251 0.82167521 16 5 C15.67 5.66 15.34 6.32 15 7 C10.125 4.125 10.125 4.125 9 3 C7.48530552 2.76807135 5.96245438 2.58784762 4.4375 2.4375 C3.61121094 2.35371094 2.78492187 2.26992187 1.93359375 2.18359375 C1.29550781 2.12300781 0.65742187 2.06242188 0 2 C0 1.34 0 0.68 0 0 Z " fill="#F3B4B1" transform="translate(103,194)"/>
<path d="M0 0 C0.66 0.33 1.32 0.66 2 1 C2.33 1.99 2.66 2.98 3 4 C3.66 4.33 4.32 4.66 5 5 C5 5.66 5 6.32 5 7 C2.69 7 0.38 7 -2 7 C-2 6.01 -2 5.02 -2 4 C-1.34 4 -0.68 4 0 4 C0 2.68 0 1.36 0 0 Z " fill="#F6D9D7" transform="translate(234,290)"/>
<path d="M0 0 C1.65 0.33 3.3 0.66 5 1 C1.375 6.75 1.375 6.75 -2 9 C-1.41196203 5.97580475 -0.77321882 2.98241547 0 0 Z " fill="#F2BAB3" transform="translate(306,214)"/>
<path d="M0 0 C0.99 0.33 1.98 0.66 3 1 C3 4.63 3 8.26 3 12 C2.01 12 1.02 12 0 12 C0 8.04 0 4.08 0 0 Z " fill="#FCE2DB" transform="translate(439,203)"/>
<path d="M0 0 C0.33 0.99 0.66 1.98 1 3 C0.67 3.66 0.34 4.32 0 5 C-0.99 5 -1.98 5 -3 5 C-3.33 6.32 -3.66 7.64 -4 9 C-5.32 8.67 -6.64 8.34 -8 8 C-5.36 5.36 -2.72 2.72 0 0 Z " fill="#EAAEA7" transform="translate(168,207)"/>
<path d="M0 0 C0.33 0.66 0.66 1.32 1 2 C0.0625 4.125 0.0625 4.125 -1 6 C-0.01 6.33 0.98 6.66 2 7 C-0.64 7 -3.28 7 -6 7 C-4.77065985 3.31197956 -3.06140622 2.27643027 0 0 Z " fill="#FEECEA" transform="translate(373,205)"/>
<path d="M0 0 C0 0.66 0 1.32 0 2 C-4.95 4.475 -4.95 4.475 -10 7 C-10 6.34 -10 5.68 -10 5 C-9.34 5 -8.68 5 -8 5 C-8 4.01 -8 3.02 -8 2 C-5.09399739 0.74335022 -3.20395416 0 0 0 Z " fill="#F09B97" transform="translate(223,244)"/>
<path d="M0 0 C0.99 0.33 1.98 0.66 3 1 C0.03 3.97 -2.94 6.94 -6 10 C-6.33 9.01 -6.66 8.02 -7 7 C-6.01 6.34 -5.02 5.68 -4 5 C-4 4.01 -4 3.02 -4 2 C-2.68 2 -1.36 2 0 2 C0 1.34 0 0.68 0 0 Z " fill="#D49D99" transform="translate(317,235)"/>
<path d="M0 0 C0 3.52032428 -0.70351351 4.4385343 -3 7 C-3.66 7 -4.32 7 -5 7 C-5.33 7.99 -5.66 8.98 -6 10 C-6.66 10 -7.32 10 -8 10 C-6.5682479 4.98886765 -4.01554307 3.05530451 0 0 Z " fill="#F3CAC7" transform="translate(251,220)"/>
<path d="M0 0 C0.33 0.66 0.66 1.32 1 2 C-0.87577357 6.06417607 -2.93582393 8.12422643 -7 10 C-7.66 9.67 -8.32 9.34 -9 9 C-6.03 6.03 -3.06 3.06 0 0 Z " fill="#E8B4AE" transform="translate(197,211)"/>
<path d="M0 0 C0 0.33 0 0.66 0 1 C-2.31 1.33 -4.62 1.66 -7 2 C-5.68 2.66 -4.36 3.32 -3 4 C-6.3 4 -9.6 4 -13 4 C-9.41420832 -0.98892755 -5.61771415 -0.43213186 0 0 Z " fill="#E19F9B" transform="translate(437,198)"/>
<path d="M0 0 C0.66 0 1.32 0 2 0 C2 0.66 2 1.32 2 2 C2.67546875 1.90460938 3.3509375 1.80921875 4.046875 1.7109375 C4.93890625 1.60007813 5.8309375 1.48921875 6.75 1.375 C7.63171875 1.25898438 8.5134375 1.14296875 9.421875 1.0234375 C12 1 12 1 16 3 C10.39 3 4.78 3 -1 3 C-0.67 2.01 -0.34 1.02 0 0 Z " fill="#FEEBE7" transform="translate(286,249)"/>
<path d="M0 0 C0.33 0 0.66 0 1 0 C1.66 3.63 2.32 7.26 3 11 C3.99 11.33 4.98 11.66 6 12 C4.68 12.33 3.36 12.66 2 13 C0.21590198 9.93753253 -0.22880021 7.77920727 -0.125 4.25 C-0.10695313 3.45078125 -0.08890625 2.6515625 -0.0703125 1.828125 C-0.04710938 1.22484375 -0.02390625 0.6215625 0 0 Z " fill="#F8DAD5" transform="translate(108,240)"/>
<path d="M0 0 C0 0.66 0 1.32 0 2 C-3.08888522 4.05925681 -3.70935927 4.2390374 -7.1875 4.125 C-9.0746875 4.063125 -9.0746875 4.063125 -11 4 C-10.67 3.01 -10.34 2.02 -10 1 C-9.05125 1.020625 -8.1025 1.04125 -7.125 1.0625 C-4.31337204 1.00626744 -2.6726858 0 0 0 Z " fill="#EAACAA" transform="translate(267,239)"/>
<path d="M0 0 C1.32 0 2.64 0 4 0 C4 0.66 4 1.32 4 2 C3.34 2 2.68 2 2 2 C1.731875 2.639375 1.46375 3.27875 1.1875 3.9375 C0 6 0 6 -3 7 C-3.33 6.01 -3.66 5.02 -4 4 C-2.68 3.67 -1.36 3.34 0 3 C0 2.01 0 1.02 0 0 Z " fill="#F1BBB8" transform="translate(300,223)"/>
<path d="M0 0 C0 2 0 2 -1.0625 3.5625 C-3.86337489 5.64056847 -6.58791584 5.67810527 -10 6 C-4.4 0 -4.4 0 0 0 Z " fill="#F0B9B2" transform="translate(277,200)"/>
<path d="M0 0 C0.99 0 1.98 0 3 0 C2.67 1.65 2.34 3.3 2 5 C2.66 5.33 3.32 5.66 4 6 C2.0625 6.5625 2.0625 6.5625 0 7 C-1 6 -1 6 -1.125 3.5 C-1 1 -1 1 0 0 Z " fill="#FDF2F5" transform="translate(316,283)"/>
<path d="M0 0 C0.99 0.33 1.98 0.66 3 1 C2.67 1.66 2.34 2.32 2 3 C1.01 3 0.02 3 -1 3 C-1.33 4.32 -1.66 5.64 -2 7 C-3.32 6.67 -4.64 6.34 -6 6 C-4.02 4.02 -2.04 2.04 0 0 Z " fill="#EDB3AE" transform="translate(150,225)"/>
<path d="M0 0 C0.99 0 1.98 0 3 0 C4.83691257 3.78187881 5.15837626 5.94568308 4 10 C1.81024227 6.71536341 1.00193437 3.79303725 0 0 Z " fill="#DBA0A2" transform="translate(211,281)"/>
<path d="M0 0 C0.99 0 1.98 0 3 0 C1.25 3.875 1.25 3.875 -1 5 C-0.67 3.35 -0.34 1.7 0 0 Z M-3 5 C-2.34 5.33 -1.68 5.66 -1 6 C-1.33 6.99 -1.66 7.98 -2 9 C-2.99 9 -3.98 9 -5 9 C-4.34 7.68 -3.68 6.36 -3 5 Z " fill="#FDE4E1" transform="translate(145,263)"/>
<path d="M0 0 C2.64 0 5.28 0 8 0 C7 2 7 2 4.93359375 2.8515625 C3.69802734 3.23441406 3.69802734 3.23441406 2.4375 3.625 C1.19806641 4.01558594 1.19806641 4.01558594 -0.06640625 4.4140625 C-0.70449219 4.60742188 -1.34257812 4.80078125 -2 5 C-1.34 3.35 -0.68 1.7 0 0 Z " fill="#F0B4B1" transform="translate(343,209)"/>
<path d="M0 0 C-0.66 0.66 -1.32 1.32 -2 2 C-2.99 2 -3.98 2 -5 2 C-5.33 2.99 -5.66 3.98 -6 5 C-6.99 5.33 -7.98 5.66 -9 6 C-9.66 5.34 -10.32 4.68 -11 4 C-7.20307814 1.17438373 -4.81430721 -0.56638908 0 0 Z " fill="#FCEFEC" transform="translate(229,198)"/>
<path d="M0 0 C0 0.66 0 1.32 0 2 C-2.30276574 4.21747812 -3.52480092 4.96760006 -6.75 5.1875 C-7.86375 5.0946875 -7.86375 5.0946875 -9 5 C-9 4.34 -9 3.68 -9 3 C-2.25 0 -2.25 0 0 0 Z " fill="#EFBCB7" transform="translate(368,239)"/>
<path d="M0 0 C0.99 0 1.98 0 3 0 C1.9024777 2.99324263 1.32317108 3.84610901 -1.625 5.25 C-2.40875 5.4975 -3.1925 5.745 -4 6 C-3.67 4.68 -3.34 3.36 -3 2 C-2.01 2 -1.02 2 0 2 C0 1.34 0 0.68 0 0 Z " fill="#F3C2BA" transform="translate(283,240)"/>
<path d="M0 0 C2 2 2 2 2.25 5.4375 C2 9 2 9 0 12 C-0.76173392 7.6835078 -1.16063604 4.25566547 0 0 Z " fill="#E9ABA7" transform="translate(442,204)"/>
<path d="M0 0 C3.3 0 6.6 0 10 0 C10 2.31 10 4.62 10 7 C9.67 5.68 9.34 4.36 9 3 C4.545 2.01 4.545 2.01 0 1 C0 0.67 0 0.34 0 0 Z " fill="#FEE6E4" transform="translate(100,206)"/>
<path d="M0 0 C-0.33 2.31 -0.66 4.62 -1 7 C-1.66 7 -2.32 7 -3 7 C-3.33 5.35 -3.66 3.7 -4 2 C-1 0 -1 0 0 0 Z " fill="#FEF2EF" transform="translate(202,285)"/>
<path d="M0 0 C0.33 1.32 0.66 2.64 1 4 C-1.375 5.5625 -1.375 5.5625 -4 7 C-4.66 6.67 -5.32 6.34 -6 6 C-4.02 4.02 -2.04 2.04 0 0 Z " fill="#EFC6C1" transform="translate(306,228)"/>
<path d="M0 0 C2.475 0.495 2.475 0.495 5 1 C5.33 1.99 5.66 2.98 6 4 C4.35 4 2.7 4 1 4 C0.67 2.68 0.34 1.36 0 0 Z " fill="#FEEBE1" transform="translate(264,292)"/>
<path d="M0 0 C0.98120464 3.05263664 0.98120464 4.94736336 0 8 C-0.66 8 -1.32 8 -2 8 C-2.33 5.69 -2.66 3.38 -3 1 C-2.67 1.66 -2.34 2.32 -2 3 C-1.34 3 -0.68 3 0 3 C0 2.01 0 1.02 0 0 Z " fill="#D69999" transform="translate(223,282)"/>
<path d="M0 0 C0.66 0.33 1.32 0.66 2 1 C-1.75 6.875 -1.75 6.875 -4 8 C-3.40138258 5.64828869 -2.73075648 3.3140622 -2 1 C-1.34 0.67 -0.68 0.34 0 0 Z " fill="#F0C6C5" transform="translate(169,256)"/>
<path d="M0 0 C0 3 0 3 -1 6 C-4.0625 7.1875 -4.0625 7.1875 -7 8 C-6.02133662 6.85373678 -5.04205413 5.70800212 -4.0625 4.5625 C-3.51722656 3.92441406 -2.97195313 3.28632813 -2.41015625 2.62890625 C-1.63204305 1.73008851 -0.84063472 0.84063472 0 0 Z " fill="#EBB3B2" transform="translate(325,209)"/>
<path d="M0 0 C2.64 0.33 5.28 0.66 8 1 C8 1.99 8 2.98 8 4 C6.68 4 5.36 4 4 4 C4 3.34 4 2.68 4 2 C3.01 2.33 2.02 2.66 1 3 C0.67 2.01 0.34 1.02 0 0 Z " fill="#F6DED9" transform="translate(318,292)"/>
<path d="M0 0 C1.98 0 3.96 0 6 0 C6 0.99 6 1.98 6 3 C4.02 3 2.04 3 0 3 C0 2.01 0 1.02 0 0 Z " fill="#DAB2B3" transform="translate(235,285)"/>
<path d="M0 0 C1.32 0 2.64 0 4 0 C3.67 2.31 3.34 4.62 3 7 C1.5 5.75 1.5 5.75 0 4 C0 2.68 0 1.36 0 0 Z " fill="#FEE2DF" transform="translate(224,281)"/>
<path d="M0 0 C1.98 0 3.96 0 6 0 C4.3545622 1.68762851 2.68711423 3.3540349 1 5 C0.67 5 0.34 5 0 5 C0 3.35 0 1.7 0 0 Z " fill="#F8ABA7" transform="translate(156,235)"/>
<path d="M0 0 C0.99 0.33 1.98 0.66 3 1 C2.6875 2.9375 2.6875 2.9375 2 5 C1.01 5.33 0.02 5.66 -1 6 C-0.67 4.02 -0.34 2.04 0 0 Z " fill="#F5CDC8" transform="translate(197,227)"/>
<path d="M0 0 C2.31 0.33 4.62 0.66 7 1 C7.33 2.32 7.66 3.64 8 5 C7.34 4.34 6.68 3.68 6 3 C2.91652174 2.83318891 2.91652174 2.83318891 0 3 C0 2.01 0 1.02 0 0 Z " fill="#E9A09F" transform="translate(389,206)"/>
<path d="M0 0 C0.33 0.99 0.66 1.98 1 3 C-1.40339772 5.76390737 -2.16263678 6.04065919 -6 7 C-4.02 4.69 -2.04 2.38 0 0 Z " fill="#E9A9A8" transform="translate(175,200)"/>
<path d="M0 0 C0 0.66 0 1.32 0 2 C-2.97 2.66 -5.94 3.32 -9 4 C-5 0 -5 0 0 0 Z " fill="#F4A39F" transform="translate(387,197)"/>
<path d="M0 0 C0.66 0 1.32 0 2 0 C2 0.66 2 1.32 2 2 C2.66 2 3.32 2 4 2 C4 3.65 4 5.3 4 7 C3.34 7 2.68 7 2 7 C2 5.68 2 4.36 2 3 C1.01 2.67 0.02 2.34 -1 2 C-0.67 1.34 -0.34 0.68 0 0 Z " fill="#FDF4F0" transform="translate(272,288)"/>
<path d="M0 0 C0.66 0 1.32 0 2 0 C2 2.64 2 5.28 2 8 C0.35 7.67 -1.3 7.34 -3 7 C-2.01 6.34 -1.02 5.68 0 5 C0.25030977 2.41619823 0.25030977 2.41619823 0 0 Z " fill="#DF9A9A" transform="translate(207,286)"/>
<path d="M0 0 C0.66 0 1.32 0 2 0 C1.67 2.64 1.34 5.28 1 8 C0.34 8 -0.32 8 -1 8 C-1.04241723 5.66705225 -1.04092937 3.33297433 -1 1 C-0.67 0.67 -0.34 0.34 0 0 Z " fill="#FEF4F2" transform="translate(211,286)"/>
<path d="M0 0 C0.66 0.33 1.32 0.66 2 1 C1.67 1.66 1.34 2.32 1 3 C0.34 3 -0.32 3 -1 3 C-1 3.66 -1 4.32 -1 5 C-2.32 5 -3.64 5 -5 5 C-5 4.34 -5 3.68 -5 3 C-2.625 1.3125 -2.625 1.3125 0 0 Z " fill="#F3A8A5" transform="translate(265,206)"/>
<path d="M0 0 C0 0.99 0 1.98 0 3 C-2.97 2.67 -5.94 2.34 -9 2 C-5.5647952 -0.29013653 -4.014669 -0.17842973 0 0 Z " fill="#FCE4E2" transform="translate(297,206)"/>
</svg>
